<?xml version="1.0" standalone="no"?>
<!DOCTYPE svg PUBLIC "-//W3C//DTD SVG 1.1//EN" "http://www.w3.org/Graphics/SVG/1.1/DTD/svg11.dtd" >
<svg xmlns="http://www.w3.org/2000/svg" xmlns:xlink="http://www.w3.org/1999/xlink" version="1.1">
<metadata>
Created by FontForge 20190801 at Mon Apr  2 14:12:26 2018
 By Jimmy Wärting
Pangram Pangram Foundry
</metadata>
<defs>
<font id="NeueMontreal-Light" horiz-adv-x="0" >
  <font-face 
    font-family="Neue Montreal Light"
    font-weight="300"
    font-stretch="normal"
    units-per-em="1000"
    panose-1="0 0 4 0 0 0 0 0 0 0"
    ascent="772"
    descent="-228"
    x-height="514"
    cap-height="715"
    bbox="-546 -240 1061 943"
    underline-thickness="50"
    underline-position="-100"
    stemh="27"
    unicode-range="U+0020-25CA"
  />
<missing-glyph horiz-adv-x="500" 
d="M410 772v-1000h-317v1000h317zM333 705h-165v-33h65v-37h-66v-33h166v33h-66v37h66v33zM267 576h-100v-104h166v34h-66v70zM233 542v-36h-33v36h33zM333 445h-166v-33h66v-37h-66v-33h100v70h66v33zM333 385h-33v-66h-133v-34h166v100zM333 263h-100v-56h34v23h33v-47
h-100v80h-33v-113h166v113zM333 90h-166v-113h166v113zM300 57v-47h-100v47h100zM333 -46h-166v-33h70l-70 -47v-33h166v33h-102l70 47h32v33z" />
    <glyph glyph-name=".notdef" horiz-adv-x="500" 
d="M410 772v-1000h-317v1000h317zM333 705h-165v-33h65v-37h-66v-33h166v33h-66v37h66v33zM267 576h-100v-104h166v34h-66v70zM233 542v-36h-33v36h33zM333 445h-166v-33h66v-37h-66v-33h100v70h66v33zM333 385h-33v-66h-133v-34h166v100zM333 263h-100v-56h34v23h33v-47
h-100v80h-33v-113h166v113zM333 90h-166v-113h166v113zM300 57v-47h-100v47h100zM333 -46h-166v-33h70l-70 -47v-33h166v33h-102l70 47h32v33z" />
    <glyph glyph-name="A" unicode="A" horiz-adv-x="604" 
d="M470 243h-336l-94 -243h-32l274 715h38l276 -715h-32zM144 271h315l-157 407h-2z" />
    <glyph glyph-name="Aacute" unicode="&#xc1;" horiz-adv-x="604" 
d="M358 922h41l-81 -124h-29zM470 243h-336l-94 -243h-32l274 715h38l276 -715h-32zM144 271h315l-157 407h-2z" />
    <glyph glyph-name="Abreve" unicode="&#x102;" horiz-adv-x="604" 
d="M301 819c-69 0 -112 51 -116 107h28c7 -39 35 -81 88 -81c54 0 82 42 89 81h28c-4 -56 -47 -107 -117 -107zM470 243h-336l-94 -243h-32l274 715h38l276 -715h-32zM144 271h315l-157 407h-2z" />
    <glyph glyph-name="Acircumflex" unicode="&#xc2;" horiz-adv-x="604" 
d="M318 927l88 -104h-39l-66 81h-1l-66 -81h-40l87 104h37zM470 243h-336l-94 -243h-32l274 715h38l276 -715h-32zM144 271h315l-157 407h-2z" />
    <glyph glyph-name="Adieresis" unicode="&#xc4;" horiz-adv-x="604" 
d="M190 873c0 17 11 32 32 32s33 -15 33 -32s-12 -32 -33 -32s-32 15 -32 32zM345 873c0 17 11 32 32 32s33 -15 33 -32s-12 -32 -33 -32s-32 15 -32 32zM470 243h-336l-94 -243h-32l274 715h38l276 -715h-32zM144 271h315l-157 407h-2z" />
    <glyph glyph-name="Agrave" unicode="&#xc0;" horiz-adv-x="604" 
d="M241 922l69 -124h-29l-81 124h41zM470 243h-336l-94 -243h-32l274 715h38l276 -715h-32zM144 271h315l-157 407h-2z" />
    <glyph glyph-name="Amacron" unicode="&#x100;" horiz-adv-x="604" 
d="M186 880h228v-26h-228v26zM470 243h-336l-94 -243h-32l274 715h38l276 -715h-32zM144 271h315l-157 407h-2z" />
    <glyph glyph-name="Aogonek" unicode="&#x104;" horiz-adv-x="604" 
d="M606 -137h3v-24c-12 -6 -29 -11 -54 -11c-62 0 -91 32 -91 75s43 78 86 98h14l-94 242h-336l-94 -243h-32l274 715h38l276 -715h-18c-55 -31 -83 -59 -83 -96c0 -29 19 -51 62 -51c21 0 34 3 49 10zM144 271h315l-157 407h-2z" />
    <glyph glyph-name="Aring" unicode="&#xc5;" horiz-adv-x="604" 
d="M300 781c-45 0 -80 32 -80 80c0 47 35 82 80 82c46 0 82 -35 82 -82c0 -48 -36 -80 -82 -80zM300 805c36 0 56 23 56 56s-20 57 -56 57s-55 -24 -55 -57s19 -56 55 -56zM470 243h-336l-94 -243h-32l274 715h38l276 -715h-32zM144 271h315l-157 407h-2z" />
    <glyph glyph-name="Atilde" unicode="&#xc3;" horiz-adv-x="604" 
d="M231 907c55 0 90 -53 129 -53c22 0 34 17 37 53h30c-3 -53 -28 -79 -67 -79c-53 0 -90 53 -129 53c-21 0 -34 -17 -37 -53h-30c3 52 28 79 67 79zM470 243h-336l-94 -243h-32l274 715h38l276 -715h-32zM144 271h315l-157 407h-2z" />
    <glyph glyph-name="AE" unicode="&#xc6;" horiz-adv-x="914" 
d="M454 28h423v-28h-455v243h-284l-94 -243h-32l274 715h581v-28h-413v-293h378v-28h-378v-338zM148 271h274v416h-115z" />
    <glyph glyph-name="B" unicode="B" horiz-adv-x="608" 
d="M550 536c0 -78 -42 -133 -118 -158v-2c90 -20 149 -84 149 -178c0 -141 -94 -198 -223 -198h-293v715h278c129 0 207 -65 207 -179zM97 389h268c91 0 153 61 153 147c0 91 -61 151 -175 151h-246v-298zM97 361v-333h258c111 0 194 48 194 170c0 99 -72 163 -180 163h-272
z" />
    <glyph glyph-name="C" unicode="C" horiz-adv-x="675" 
d="M601 504c-17 109 -108 194 -237 194c-188 0 -295 -147 -295 -341c0 -198 109 -340 292 -340c144 0 236 109 251 229h32c-19 -151 -132 -257 -283 -257c-196 0 -324 147 -324 368c0 216 127 369 327 369c144 0 247 -92 269 -222h-32z" />
    <glyph glyph-name="Cacute" unicode="&#x106;" horiz-adv-x="675" 
d="M422 922h41l-81 -124h-29zM601 504c-17 109 -108 194 -237 194c-188 0 -295 -147 -295 -341c0 -198 109 -340 292 -340c144 0 236 109 251 229h32c-19 -151 -132 -257 -283 -257c-196 0 -324 147 -324 368c0 216 127 369 327 369c144 0 247 -92 269 -222h-32z" />
    <glyph glyph-name="Ccaron" unicode="&#x10c;" horiz-adv-x="675" 
d="M382 822h-37l-87 104h40l66 -81h1l66 81h39zM601 504c-17 109 -108 194 -237 194c-188 0 -295 -147 -295 -341c0 -198 109 -340 292 -340c144 0 236 109 251 229h32c-19 -151 -132 -257 -283 -257c-196 0 -324 147 -324 368c0 216 127 369 327 369
c144 0 247 -92 269 -222h-32z" />
    <glyph glyph-name="Ccedilla" unicode="&#xc7;" horiz-adv-x="675" 
d="M371 -11l-49 -42v-2c60 13 96 -15 96 -57c0 -46 -41 -69 -95 -69c-35 0 -68 10 -94 26l10 17c24 -13 52 -20 80 -20c41 0 69 14 69 44c0 27 -19 39 -54 39c-19 0 -35 -5 -47 -11l-12 15l65 61c-184 10 -303 154 -303 367c0 216 127 369 327 369c144 0 247 -92 269 -222
h-32c-17 109 -108 194 -237 194c-188 0 -295 -147 -295 -341c0 -198 109 -340 292 -340c144 0 236 109 251 229h32c-19 -148 -127 -252 -273 -257z" />
    <glyph glyph-name="Cdotaccent" unicode="&#x10a;" horiz-adv-x="675" 
d="M332 873c0 17 11 32 32 32s33 -15 33 -32s-12 -32 -33 -32s-32 15 -32 32zM601 504c-17 109 -108 194 -237 194c-188 0 -295 -147 -295 -341c0 -198 109 -340 292 -340c144 0 236 109 251 229h32c-19 -151 -132 -257 -283 -257c-196 0 -324 147 -324 368
c0 216 127 369 327 369c144 0 247 -92 269 -222h-32z" />
    <glyph glyph-name="D" unicode="D" horiz-adv-x="653" 
d="M65 0v715h256c207 0 295 -162 295 -361c0 -200 -95 -354 -302 -354h-249zM95 687v-659h218c173 0 271 124 271 326s-91 333 -264 333h-225z" />
    <glyph glyph-name="Eth" unicode="&#xd0;" horiz-adv-x="702" 
d="M367 715c207 0 295 -162 295 -361c0 -200 -95 -354 -302 -354h-249v356h-108v28h108v331h256zM359 28c173 0 271 124 271 326s-91 333 -264 333h-225v-303h224v-28h-224v-328h218z" />
    <glyph glyph-name="Dcaron" unicode="&#x10e;" horiz-adv-x="653" 
d="M278 822h-37l-87 104h40l66 -81h1l66 81h39zM65 0v715h256c207 0 295 -162 295 -361c0 -200 -95 -354 -302 -354h-249zM95 687v-659h218c173 0 271 124 271 326s-91 333 -264 333h-225z" />
    <glyph glyph-name="Dcroat" unicode="&#x110;" horiz-adv-x="702" 
d="M367 715c207 0 295 -162 295 -361c0 -200 -95 -354 -302 -354h-249v356h-108v28h108v331h256zM359 28c173 0 271 124 271 326s-91 333 -264 333h-225v-303h224v-28h-224v-328h218z" />
    <glyph glyph-name="E" unicode="E" horiz-adv-x="582" 
d="M97 394h403v-28h-403v-338h448v-28h-480v715h470v-28h-438v-293z" />
    <glyph glyph-name="Eacute" unicode="&#xc9;" horiz-adv-x="582" 
d="M362 922h41l-81 -124h-29zM97 394h403v-28h-403v-338h448v-28h-480v715h470v-28h-438v-293z" />
    <glyph glyph-name="Ecaron" unicode="&#x11a;" horiz-adv-x="582" 
d="M322 822h-37l-87 104h40l66 -81h1l66 81h39zM97 394h403v-28h-403v-338h448v-28h-480v715h470v-28h-438v-293z" />
    <glyph glyph-name="Ecircumflex" unicode="&#xca;" horiz-adv-x="582" 
d="M322 927l88 -104h-39l-66 81h-1l-66 -81h-40l87 104h37zM97 394h403v-28h-403v-338h448v-28h-480v715h470v-28h-438v-293z" />
    <glyph glyph-name="Edieresis" unicode="&#xcb;" horiz-adv-x="582" 
d="M194 873c0 17 11 32 32 32s33 -15 33 -32s-12 -32 -33 -32s-32 15 -32 32zM349 873c0 17 11 32 32 32s33 -15 33 -32s-12 -32 -33 -32s-32 15 -32 32zM97 394h403v-28h-403v-338h448v-28h-480v715h470v-28h-438v-293z" />
    <glyph glyph-name="Edotaccent" unicode="&#x116;" horiz-adv-x="582" 
d="M272 873c0 17 11 32 32 32s33 -15 33 -32s-12 -32 -33 -32s-32 15 -32 32zM97 394h403v-28h-403v-338h448v-28h-480v715h470v-28h-438v-293z" />
    <glyph glyph-name="Egrave" unicode="&#xc8;" horiz-adv-x="582" 
d="M245 922l69 -124h-29l-81 124h41zM97 394h403v-28h-403v-338h448v-28h-480v715h470v-28h-438v-293z" />
    <glyph glyph-name="Emacron" unicode="&#x112;" horiz-adv-x="582" 
d="M190 880h228v-26h-228v26zM97 394h403v-28h-403v-338h448v-28h-480v715h470v-28h-438v-293z" />
    <glyph glyph-name="Eogonek" unicode="&#x118;" horiz-adv-x="582" 
d="M571 -138h3v-24c-12 -6 -29 -11 -54 -11c-62 0 -91 32 -91 75s43 78 86 98h-450v715h470v-28h-438v-293h403v-28h-403v-338h448v-28c-56 -31 -85 -60 -85 -97c0 -29 19 -51 62 -51c21 0 34 3 49 10z" />
    <glyph glyph-name="F" unicode="F" horiz-adv-x="551" 
d="M97 387h368v-28h-368v-359h-32v715h460v-28h-428v-300z" />
    <glyph glyph-name="G" unicode="G" horiz-adv-x="715" 
d="M616 511c-22 109 -116 187 -246 187c-201 0 -301 -159 -301 -342c0 -188 96 -339 293 -339c165 0 265 122 265 309h-248v28h280v-354h-26l-4 189h-2c-24 -108 -114 -200 -265 -200c-213 0 -325 159 -325 367c0 204 117 370 333 370c147 0 253 -82 278 -215h-32z" />
    <glyph glyph-name="Gbreve" unicode="&#x11e;" horiz-adv-x="715" 
d="M368 819c-69 0 -112 51 -116 107h28c7 -39 35 -81 88 -81c54 0 82 42 89 81h28c-4 -56 -47 -107 -117 -107zM616 511c-22 109 -116 187 -246 187c-201 0 -301 -159 -301 -342c0 -188 96 -339 293 -339c165 0 265 122 265 309h-248v28h280v-354h-26l-4 189h-2
c-24 -108 -114 -200 -265 -200c-213 0 -325 159 -325 367c0 204 117 370 333 370c147 0 253 -82 278 -215h-32z" />
    <glyph glyph-name="Gcommaaccent" unicode="&#x122;" horiz-adv-x="715" 
d="M616 511c-22 109 -116 187 -246 187c-201 0 -301 -159 -301 -342c0 -188 96 -339 293 -339c165 0 265 122 265 309h-248v28h280v-354h-26l-4 189h-2c-24 -108 -114 -200 -265 -200c-213 0 -325 159 -325 367c0 204 117 370 333 370c147 0 253 -82 278 -215h-32zM378 -144
c-17 -6 -33 4 -33 29c0 20 13 31 29 31c21 0 31 -16 31 -54c0 -20 -2 -86 -55 -102v28c28 13 28 54 28 68z" />
    <glyph glyph-name="Gdotaccent" unicode="&#x120;" horiz-adv-x="715" 
d="M335 873c0 17 11 32 32 32s33 -15 33 -32s-12 -32 -33 -32s-32 15 -32 32zM616 511c-22 109 -116 187 -246 187c-201 0 -301 -159 -301 -342c0 -188 96 -339 293 -339c165 0 265 122 265 309h-248v28h280v-354h-26l-4 189h-2c-24 -108 -114 -200 -265 -200
c-213 0 -325 159 -325 367c0 204 117 370 333 370c147 0 253 -82 278 -215h-32z" />
    <glyph glyph-name="H" unicode="H" horiz-adv-x="651" 
d="M65 715h32v-321h457v321h32v-715h-32v366h-457v-366h-32v715z" />
    <glyph glyph-name="Hbar" unicode="&#x126;" horiz-adv-x="651" 
d="M657 584v-28h-70v-556h-32v366h-457v-366h-32v556h-71v28h71v131h32v-131h457v131h32v-131h70zM555 394v162h-457v-162h457z" />
    <glyph glyph-name="I" unicode="I" horiz-adv-x="168" 
d="M68 715h32v-715h-32v715z" />
    <glyph glyph-name="Iacute" unicode="&#xcd;" horiz-adv-x="168" 
d="M141 922h41l-81 -124h-29zM68 715h32v-715h-32v715z" />
    <glyph glyph-name="Icircumflex" unicode="&#xce;" horiz-adv-x="168" 
d="M101 927l88 -104h-39l-66 81h-1l-66 -81h-40l87 104h37zM68 715h32v-715h-32v715z" />
    <glyph glyph-name="Idieresis" unicode="&#xcf;" horiz-adv-x="224" 
d="M2 873c0 17 11 32 32 32s33 -15 33 -32s-12 -32 -33 -32s-32 15 -32 32zM157 873c0 17 11 32 32 32s33 -15 33 -32s-12 -32 -33 -32s-32 15 -32 32zM97 715h32v-715h-32v715z" />
    <glyph glyph-name="Idotaccent" unicode="&#x130;" horiz-adv-x="200" 
d="M68 873c0 17 11 32 32 32s33 -15 33 -32s-12 -32 -33 -32s-32 15 -32 32zM85 715h32v-715h-32v715z" />
    <glyph glyph-name="Igrave" unicode="&#xcc;" horiz-adv-x="168" 
d="M24 922l69 -124h-29l-81 124h41zM68 715h32v-715h-32v715z" />
    <glyph glyph-name="Imacron" unicode="&#x12a;" horiz-adv-x="244" 
d="M8 880h228v-26h-228v26zM106 715h32v-715h-32v715z" />
    <glyph glyph-name="Iogonek" unicode="&#x12e;" horiz-adv-x="168" 
d="M126 -138h3v-24c-12 -6 -29 -11 -54 -11c-62 0 -91 32 -91 75s43 78 86 98h-2v715h32v-715c-56 -31 -85 -60 -85 -97c0 -29 19 -51 62 -51c21 0 34 3 49 10z" />
    <glyph glyph-name="J" unicode="J" horiz-adv-x="454" 
d="M395 182c0 -110 -63 -193 -187 -193s-186 83 -186 193v29h32v-29c0 -105 61 -165 154 -165s155 60 155 165v533h32v-533z" />
    <glyph glyph-name="K" unicode="K" horiz-adv-x="607" 
d="M65 715h32v-463l447 463h42l-295 -306l314 -409h-39l-297 386l-172 -178v-208h-32v715z" />
    <glyph glyph-name="Kcommaaccent" unicode="&#x136;" horiz-adv-x="607" 
d="M65 715h32v-463l447 463h42l-295 -306l314 -409h-39l-297 386l-172 -178v-208h-32v715zM308 -144c-17 -6 -33 4 -33 29c0 20 13 31 29 31c21 0 31 -16 31 -54c0 -20 -2 -86 -55 -102v28c28 13 28 54 28 68z" />
    <glyph glyph-name="L" unicode="L" horiz-adv-x="530" 
d="M65 715h32v-687h410v-28h-442v715z" />
    <glyph glyph-name="Lacute" unicode="&#x139;" horiz-adv-x="530" 
d="M140 922h41l-81 -124h-29zM65 715h32v-687h410v-28h-442v715z" />
    <glyph glyph-name="Lcaron" unicode="&#x13d;" horiz-adv-x="530" 
d="M319 659c-17 -6 -33 4 -33 29c0 20 13 31 29 31c21 0 31 -16 31 -54c0 -20 -2 -86 -55 -102v28c28 13 28 54 28 68zM65 715h32v-687h410v-28h-442v715z" />
    <glyph glyph-name="Lcommaaccent" unicode="&#x13b;" horiz-adv-x="530" 
d="M65 715h32v-687h410v-28h-442v715zM289 -144c-17 -6 -33 4 -33 29c0 20 13 31 29 31c21 0 31 -16 31 -54c0 -20 -2 -86 -55 -102v28c28 13 28 54 28 68z" />
    <glyph glyph-name="Lslash" unicode="&#x141;" horiz-adv-x="575" 
d="M142 28h410v-28h-442v288l-115 -63v34l115 63v393h32v-376l252 138v-34l-252 -138v-277z" />
    <glyph glyph-name="M" unicode="M" horiz-adv-x="793" 
d="M65 0v715h47l283 -672h2l284 672h47v-715h-32v668h-2l-281 -668h-34l-280 668h-2v-668h-32z" />
    <glyph glyph-name="N" unicode="N" horiz-adv-x="660" 
d="M65 0v715h40l456 -670h2v670h32v-715h-40l-456 668h-2v-668h-32z" />
    <glyph glyph-name="Nacute" unicode="&#x143;" horiz-adv-x="660" 
d="M387 922h41l-81 -124h-29zM65 0v715h40l456 -670h2v670h32v-715h-40l-456 668h-2v-668h-32z" />
    <glyph glyph-name="Ncaron" unicode="&#x147;" horiz-adv-x="660" 
d="M347 822h-37l-87 104h40l66 -81h1l66 81h39zM65 0v715h40l456 -670h2v670h32v-715h-40l-456 668h-2v-668h-32z" />
    <glyph glyph-name="Ncommaaccent" unicode="&#x145;" horiz-adv-x="660" 
d="M65 0v715h40l456 -670h2v670h32v-715h-40l-456 668h-2v-668h-32zM333 -144c-17 -6 -33 4 -33 29c0 20 13 31 29 31c21 0 31 -16 31 -54c0 -20 -2 -86 -55 -102v28c28 13 28 54 28 68z" />
    <glyph glyph-name="Eng" unicode="&#x14a;" horiz-adv-x="660" 
d="M65 0v715h40l456 -670h2v670h32v-695c0 -144 -82 -197 -172 -197c-23 0 -42 1 -71 10v26c140 -25 203 24 203 141l-456 668h-2v-668h-32z" />
    <glyph glyph-name="Ntilde" unicode="&#xd1;" horiz-adv-x="660" 
d="M260 907c55 0 90 -53 129 -53c22 0 34 17 37 53h30c-3 -53 -28 -79 -67 -79c-53 0 -90 53 -129 53c-21 0 -34 -17 -37 -53h-30c3 52 28 79 67 79zM65 0v715h40l456 -670h2v670h32v-715h-40l-456 668h-2v-668h-32z" />
    <glyph glyph-name="O" unicode="O" horiz-adv-x="732" 
d="M366 -11c-197 0 -329 154 -329 369s132 368 329 368s329 -153 329 -368s-132 -369 -329 -369zM366 17c169 0 297 137 297 341s-128 340 -297 340s-297 -136 -297 -340s128 -341 297 -341z" />
    <glyph glyph-name="Oacute" unicode="&#xd3;" horiz-adv-x="732" 
d="M423 922h41l-81 -124h-29zM366 -11c-197 0 -329 154 -329 369s132 368 329 368s329 -153 329 -368s-132 -369 -329 -369zM366 17c169 0 297 137 297 341s-128 340 -297 340s-297 -136 -297 -340s128 -341 297 -341z" />
    <glyph glyph-name="Ocircumflex" unicode="&#xd4;" horiz-adv-x="732" 
d="M383 927l88 -104h-39l-66 81h-1l-66 -81h-40l87 104h37zM366 -11c-197 0 -329 154 -329 369s132 368 329 368s329 -153 329 -368s-132 -369 -329 -369zM366 17c169 0 297 137 297 341s-128 340 -297 340s-297 -136 -297 -340s128 -341 297 -341z" />
    <glyph glyph-name="Odieresis" unicode="&#xd6;" horiz-adv-x="732" 
d="M255 873c0 17 11 32 32 32s33 -15 33 -32s-12 -32 -33 -32s-32 15 -32 32zM410 873c0 17 11 32 32 32s33 -15 33 -32s-12 -32 -33 -32s-32 15 -32 32zM366 -11c-197 0 -329 154 -329 369s132 368 329 368s329 -153 329 -368s-132 -369 -329 -369zM366 17
c169 0 297 137 297 341s-128 340 -297 340s-297 -136 -297 -340s128 -341 297 -341z" />
    <glyph glyph-name="Ograve" unicode="&#xd2;" horiz-adv-x="732" 
d="M306 922l69 -124h-29l-81 124h41zM366 -11c-197 0 -329 154 -329 369s132 368 329 368s329 -153 329 -368s-132 -369 -329 -369zM366 17c169 0 297 137 297 341s-128 340 -297 340s-297 -136 -297 -340s128 -341 297 -341z" />
    <glyph glyph-name="Ohungarumlaut" unicode="&#x150;" horiz-adv-x="732" 
d="M356 922h41l-81 -124h-29zM483 922h41l-81 -124h-29zM366 -11c-197 0 -329 154 -329 369s132 368 329 368s329 -153 329 -368s-132 -369 -329 -369zM366 17c169 0 297 137 297 341s-128 340 -297 340s-297 -136 -297 -340s128 -341 297 -341z" />
    <glyph glyph-name="Omacron" unicode="&#x14c;" horiz-adv-x="732" 
d="M251 880h228v-26h-228v26zM366 -11c-197 0 -329 154 -329 369s132 368 329 368s329 -153 329 -368s-132 -369 -329 -369zM366 17c169 0 297 137 297 341s-128 340 -297 340s-297 -136 -297 -340s128 -341 297 -341z" />
    <glyph glyph-name="Oslash" unicode="&#xd8;" horiz-adv-x="745" 
d="M710 691l-80 -84c50 -63 78 -150 78 -249c0 -215 -132 -369 -329 -369c-99 0 -182 39 -240 106l-86 -90l-20 21l88 92c-46 63 -71 146 -71 240c0 215 132 368 329 368c95 0 174 -35 232 -96l77 81zM82 358c0 -86 23 -160 61 -217l446 466c-53 58 -127 91 -210 91
c-169 0 -297 -136 -297 -340zM676 358c0 91 -25 168 -68 226l-447 -466c54 -64 130 -101 218 -101c169 0 297 137 297 341z" />
    <glyph glyph-name="Otilde" unicode="&#xd5;" horiz-adv-x="732" 
d="M296 907c55 0 90 -53 129 -53c22 0 34 17 37 53h30c-3 -53 -28 -79 -67 -79c-53 0 -90 53 -129 53c-21 0 -34 -17 -37 -53h-30c3 52 28 79 67 79zM366 -11c-197 0 -329 154 -329 369s132 368 329 368s329 -153 329 -368s-132 -369 -329 -369zM366 17
c169 0 297 137 297 341s-128 340 -297 340s-297 -136 -297 -340s128 -341 297 -341z" />
    <glyph glyph-name="OE" unicode="&#x152;" horiz-adv-x="1056" 
d="M610 28h409v-28h-441v179c-46 -116 -139 -190 -254 -190c-167 0 -287 154 -287 369s120 368 287 368c115 0 208 -73 254 -189v178h431v-28h-399v-293h364v-28h-364v-338zM324 17c139 0 254 137 254 341s-115 340 -254 340s-255 -136 -255 -340s116 -341 255 -341z" />
    <glyph glyph-name="P" unicode="P" horiz-adv-x="568" 
d="M65 0v715h254c132 0 226 -53 226 -203s-94 -203 -226 -203h-222v-309h-32zM97 687v-350h231c113 0 185 53 185 175s-72 175 -185 175h-231z" />
    <glyph glyph-name="Thorn" unicode="&#xde;" horiz-adv-x="568" 
d="M65 0v715h32v-110h222c132 0 226 -53 226 -203s-94 -203 -226 -203h-222v-199h-32zM97 577v-350h231c113 0 185 53 185 175s-72 175 -185 175h-231z" />
    <glyph glyph-name="Q" unicode="Q" horiz-adv-x="732" 
d="M695 358c0 -122 -42 -224 -115 -290l88 -88l-22 -22l-90 90c-52 -38 -117 -59 -190 -59c-197 0 -329 154 -329 369s132 368 329 368s329 -153 329 -368zM366 17c63 0 120 19 167 54l-83 83l22 22l86 -86c65 60 105 154 105 268c0 204 -128 340 -297 340
s-297 -136 -297 -340s128 -341 297 -341z" />
    <glyph glyph-name="R" unicode="R" horiz-adv-x="605" 
d="M65 0v715h280c129 0 216 -63 216 -200c0 -103 -62 -167 -159 -185v-2c181 -21 131 -310 172 -322v-6h-35c-38 30 16 315 -189 315h-253v-315h-32zM97 687v-344h229c117 0 203 58 203 172c0 121 -71 172 -203 172h-229z" />
    <glyph glyph-name="Racute" unicode="&#x154;" horiz-adv-x="605" 
d="M347 922h41l-81 -124h-29zM65 0v715h280c129 0 216 -63 216 -200c0 -103 -62 -167 -159 -185v-2c181 -21 131 -310 172 -322v-6h-35c-38 30 16 315 -189 315h-253v-315h-32zM97 687v-344h229c117 0 203 58 203 172c0 121 -71 172 -203 172h-229z" />
    <glyph glyph-name="Rcaron" unicode="&#x158;" horiz-adv-x="605" 
d="M307 822h-37l-87 104h40l66 -81h1l66 81h39zM65 0v715h280c129 0 216 -63 216 -200c0 -103 -62 -167 -159 -185v-2c181 -21 131 -310 172 -322v-6h-35c-38 30 16 315 -189 315h-253v-315h-32zM97 687v-344h229c117 0 203 58 203 172c0 121 -71 172 -203 172h-229z" />
    <glyph glyph-name="Rcommaaccent" unicode="&#x156;" horiz-adv-x="605" 
d="M65 0v715h280c129 0 216 -63 216 -200c0 -103 -62 -167 -159 -185v-2c181 -21 131 -310 172 -322v-6h-35c-38 30 16 315 -189 315h-253v-315h-32zM97 687v-344h229c117 0 203 58 203 172c0 121 -71 172 -203 172h-229zM313 -144c-17 -6 -33 4 -33 29c0 20 13 31 29 31
c21 0 31 -16 31 -54c0 -20 -2 -86 -55 -102v28c28 13 28 54 28 68z" />
    <glyph glyph-name="S" unicode="S" horiz-adv-x="585" 
d="M303 392c164 -29 247 -77 247 -205c0 -109 -87 -198 -240 -198c-157 0 -279 78 -288 241h32c9 -138 107 -213 256 -213c139 0 207 79 208 170c1 122 -85 154 -250 182c-137 23 -218 68 -218 185c0 113 98 172 228 172c141 0 236 -73 245 -203h-32
c-10 106 -78 175 -213 175c-117 0 -196 -55 -196 -144c0 -113 85 -138 221 -162z" />
    <glyph glyph-name="Sacute" unicode="&#x15a;" horiz-adv-x="585" 
d="M343 922h41l-81 -124h-29zM303 392c164 -29 247 -77 247 -205c0 -109 -87 -198 -240 -198c-157 0 -279 78 -288 241h32c9 -138 107 -213 256 -213c139 0 207 79 208 170c1 122 -85 154 -250 182c-137 23 -218 68 -218 185c0 113 98 172 228 172c141 0 236 -73 245 -203
h-32c-10 106 -78 175 -213 175c-117 0 -196 -55 -196 -144c0 -113 85 -138 221 -162z" />
    <glyph glyph-name="Scaron" unicode="&#x160;" horiz-adv-x="585" 
d="M303 822h-37l-87 104h40l66 -81h1l66 81h39zM303 392c164 -29 247 -77 247 -205c0 -109 -87 -198 -240 -198c-157 0 -279 78 -288 241h32c9 -138 107 -213 256 -213c139 0 207 79 208 170c1 122 -85 154 -250 182c-137 23 -218 68 -218 185c0 113 98 172 228 172
c141 0 236 -73 245 -203h-32c-10 106 -78 175 -213 175c-117 0 -196 -55 -196 -144c0 -113 85 -138 221 -162z" />
    <glyph glyph-name="Scedilla" unicode="&#x15e;" horiz-adv-x="585" 
d="M315 -11l-49 -42v-2c60 13 96 -15 96 -57c0 -46 -41 -69 -95 -69c-35 0 -68 10 -94 26l10 17c24 -13 52 -20 80 -20c41 0 69 14 69 44c0 27 -19 39 -54 39c-19 0 -35 -5 -47 -11l-12 15l65 61c-144 8 -253 86 -262 240h32c9 -138 107 -213 256 -213c139 0 207 79 208 170
c1 122 -85 154 -250 182c-137 23 -218 68 -218 185c0 113 98 172 228 172c141 0 236 -73 245 -203h-32c-10 106 -78 175 -213 175c-117 0 -196 -55 -196 -144c0 -113 85 -138 221 -162c164 -29 247 -77 247 -205c0 -108 -85 -196 -235 -198z" />
    <glyph glyph-name="Scommaaccent" unicode="&#x218;" horiz-adv-x="585" 
d="M303 392c164 -29 247 -77 247 -205c0 -109 -87 -198 -240 -198c-157 0 -279 78 -288 241h32c9 -138 107 -213 256 -213c139 0 207 79 208 170c1 122 -85 154 -250 182c-137 23 -218 68 -218 185c0 113 98 172 228 172c141 0 236 -73 245 -203h-32
c-10 106 -78 175 -213 175c-117 0 -196 -55 -196 -144c0 -113 85 -138 221 -162zM312 -144c-17 -6 -33 4 -33 29c0 20 13 31 29 31c21 0 31 -16 31 -54c0 -20 -2 -86 -55 -102v28c28 13 28 54 28 68z" />
    <glyph glyph-name="T" unicode="T" horiz-adv-x="582" 
d="M275 0v687h-255v28h542v-28h-255v-687h-32z" />
    <glyph glyph-name="Tbar" unicode="&#x166;" horiz-adv-x="581" 
d="M562 687h-255v-303h192v-28h-192v-356h-32v356h-184v28h184v303h-255v28h542v-28z" />
    <glyph glyph-name="Tcaron" unicode="&#x164;" horiz-adv-x="582" 
d="M308 822h-37l-87 104h40l66 -81h1l66 81h39zM275 0v687h-255v28h542v-28h-255v-687h-32z" />
    <glyph glyph-name="uni0162" unicode="&#x162;" horiz-adv-x="582" 
d="M306 0l-58 -50v-2c60 13 96 -15 96 -57c0 -46 -41 -69 -95 -69c-35 0 -68 10 -94 26l10 17c24 -13 52 -20 80 -20c41 0 69 14 69 44c0 27 -19 39 -54 39c-19 0 -35 -5 -47 -11l-12 15l73 68h1v687h-255v28h542v-28h-255v-687h-1z" />
    <glyph glyph-name="uni021A" unicode="&#x21a;" horiz-adv-x="582" 
d="M275 0v687h-255v28h542v-28h-255v-687h-32zM294 -141c-17 -6 -33 4 -33 29c0 20 13 31 29 31c21 0 31 -16 31 -54c0 -20 -2 -86 -55 -102v28c28 13 28 54 28 68z" />
    <glyph glyph-name="U" unicode="U" horiz-adv-x="624" 
d="M569 248c0 -166 -78 -259 -257 -259s-257 93 -257 259v467h32v-467c0 -156 74 -231 225 -231s225 75 225 231v467h32v-467z" />
    <glyph glyph-name="Uacute" unicode="&#xda;" horiz-adv-x="624" 
d="M369 922h41l-81 -124h-29zM569 248c0 -166 -78 -259 -257 -259s-257 93 -257 259v467h32v-467c0 -156 74 -231 225 -231s225 75 225 231v467h32v-467z" />
    <glyph glyph-name="Ucircumflex" unicode="&#xdb;" horiz-adv-x="624" 
d="M329 927l88 -104h-39l-66 81h-1l-66 -81h-40l87 104h37zM569 248c0 -166 -78 -259 -257 -259s-257 93 -257 259v467h32v-467c0 -156 74 -231 225 -231s225 75 225 231v467h32v-467z" />
    <glyph glyph-name="Udieresis" unicode="&#xdc;" horiz-adv-x="624" 
d="M201 873c0 17 11 32 32 32s33 -15 33 -32s-12 -32 -33 -32s-32 15 -32 32zM356 873c0 17 11 32 32 32s33 -15 33 -32s-12 -32 -33 -32s-32 15 -32 32zM569 248c0 -166 -78 -259 -257 -259s-257 93 -257 259v467h32v-467c0 -156 74 -231 225 -231s225 75 225 231v467h32
v-467z" />
    <glyph glyph-name="Ugrave" unicode="&#xd9;" horiz-adv-x="624" 
d="M252 922l69 -124h-29l-81 124h41zM569 248c0 -166 -78 -259 -257 -259s-257 93 -257 259v467h32v-467c0 -156 74 -231 225 -231s225 75 225 231v467h32v-467z" />
    <glyph glyph-name="Uhungarumlaut" unicode="&#x170;" horiz-adv-x="624" 
d="M302 922h41l-81 -124h-29zM429 922h41l-81 -124h-29zM569 248c0 -166 -78 -259 -257 -259s-257 93 -257 259v467h32v-467c0 -156 74 -231 225 -231s225 75 225 231v467h32v-467z" />
    <glyph glyph-name="Umacron" unicode="&#x16a;" horiz-adv-x="624" 
d="M197 880h228v-26h-228v26zM569 248c0 -166 -78 -259 -257 -259s-257 93 -257 259v467h32v-467c0 -156 74 -231 225 -231s225 75 225 231v467h32v-467z" />
    <glyph glyph-name="Uogonek" unicode="&#x172;" horiz-adv-x="624" 
d="M537 715h32v-467c0 -133 -50 -219 -162 -248c-56 -31 -85 -60 -85 -97c0 -29 19 -51 62 -51c21 0 34 3 49 10h3v-24c-12 -6 -29 -11 -54 -11c-62 0 -91 32 -91 75c0 37 33 69 69 90c-15 -2 -31 -3 -48 -3c-179 0 -257 93 -257 259v467h32v-467c0 -156 74 -231 225 -231
s225 75 225 231v467z" />
    <glyph glyph-name="Uring" unicode="&#x16e;" horiz-adv-x="624" 
d="M311 781c-45 0 -80 32 -80 80c0 47 35 82 80 82c46 0 82 -35 82 -82c0 -48 -36 -80 -82 -80zM311 805c36 0 56 23 56 56s-20 57 -56 57s-55 -24 -55 -57s19 -56 55 -56zM569 248c0 -166 -78 -259 -257 -259s-257 93 -257 259v467h32v-467c0 -156 74 -231 225 -231
s225 75 225 231v467h32v-467z" />
    <glyph glyph-name="V" unicode="V" horiz-adv-x="591" 
d="M9 715h33l253 -658h1l253 658h33l-274 -715h-25z" />
    <glyph glyph-name="W" unicode="W" horiz-adv-x="868" 
d="M13 715h33l176 -663h1l191 663h40l191 -663h1l176 663h33l-190 -715h-37l-193 663h-2l-193 -663h-37z" />
    <glyph glyph-name="Wacute" unicode="&#x1e82;" horiz-adv-x="868" 
d="M491 922h41l-81 -124h-29zM13 715h33l176 -663h1l191 663h40l191 -663h1l176 663h33l-190 -715h-37l-193 663h-2l-193 -663h-37z" />
    <glyph glyph-name="Wcircumflex" unicode="&#x174;" horiz-adv-x="868" 
d="M451 927l88 -104h-39l-66 81h-1l-66 -81h-40l87 104h37zM13 715h33l176 -663h1l191 663h40l191 -663h1l176 663h33l-190 -715h-37l-193 663h-2l-193 -663h-37z" />
    <glyph glyph-name="Wdieresis" unicode="&#x1e84;" horiz-adv-x="868" 
d="M323 873c0 17 11 32 32 32s33 -15 33 -32s-12 -32 -33 -32s-32 15 -32 32zM478 873c0 17 11 32 32 32s33 -15 33 -32s-12 -32 -33 -32s-32 15 -32 32zM13 715h33l176 -663h1l191 663h40l191 -663h1l176 663h33l-190 -715h-37l-193 663h-2l-193 -663h-37z" />
    <glyph glyph-name="Wgrave" unicode="&#x1e80;" horiz-adv-x="868" 
d="M374 922l69 -124h-29l-81 124h41zM13 715h33l176 -663h1l191 663h40l191 -663h1l176 663h33l-190 -715h-37l-193 663h-2l-193 -663h-37z" />
    <glyph glyph-name="X" unicode="X" horiz-adv-x="576" 
d="M271 365l-242 350h38l220 -320h1l221 320h38l-242 -350l258 -365h-38l-237 335h-1l-236 -335h-38z" />
    <glyph glyph-name="Y" unicode="Y" horiz-adv-x="576" 
d="M8 715h37l241 -387h2l243 387h37l-265 -422v-293h-32v293z" />
    <glyph glyph-name="Yacute" unicode="&#xdd;" horiz-adv-x="576" 
d="M345 922h41l-81 -124h-29zM8 715h37l241 -387h2l243 387h37l-265 -422v-293h-32v293z" />
    <glyph glyph-name="Ycircumflex" unicode="&#x176;" horiz-adv-x="576" 
d="M305 927l88 -104h-39l-66 81h-1l-66 -81h-40l87 104h37zM8 715h37l241 -387h2l243 387h37l-265 -422v-293h-32v293z" />
    <glyph glyph-name="Ydieresis" unicode="&#x178;" horiz-adv-x="576" 
d="M177 873c0 17 11 32 32 32s33 -15 33 -32s-12 -32 -33 -32s-32 15 -32 32zM332 873c0 17 11 32 32 32s33 -15 33 -32s-12 -32 -33 -32s-32 15 -32 32zM8 715h37l241 -387h2l243 387h37l-265 -422v-293h-32v293z" />
    <glyph glyph-name="Ygrave" unicode="&#x1ef2;" horiz-adv-x="576" 
d="M228 922l69 -124h-29l-81 124h41zM8 715h37l241 -387h2l243 387h37l-265 -422v-293h-32v293z" />
    <glyph glyph-name="Z" unicode="Z" horiz-adv-x="588" 
d="M46 715h500v-28l-479 -657v-2h488v-28h-528v28l478 657v2h-459v28z" />
    <glyph glyph-name="Zacute" unicode="&#x179;" horiz-adv-x="588" 
d="M358 922h41l-81 -124h-29zM46 715h500v-28l-479 -657v-2h488v-28h-528v28l478 657v2h-459v28z" />
    <glyph glyph-name="Zcaron" unicode="&#x17d;" horiz-adv-x="588" 
d="M318 822h-37l-87 104h40l66 -81h1l66 81h39zM46 715h500v-28l-479 -657v-2h488v-28h-528v28l478 657v2h-459v28z" />
    <glyph glyph-name="Zdotaccent" unicode="&#x17b;" horiz-adv-x="588" 
d="M268 873c0 17 11 32 32 32s33 -15 33 -32s-12 -32 -33 -32s-32 15 -32 32zM46 715h500v-28l-479 -657v-2h488v-28h-528v28l478 657v2h-459v28z" />
    <glyph glyph-name="a" unicode="a" horiz-adv-x="490" 
d="M379 381c0 78 -59 114 -138 114c-103 0 -158 -49 -163 -126h-30c5 71 49 152 193 152c93 0 168 -39 168 -158v-260c0 -40 -5 -95 76 -78v-26c-13 -3 -25 -4 -33 -4c-52 0 -73 24 -73 89h-2c-41 -68 -107 -95 -188 -95c-98 0 -165 53 -165 136c0 96 60 138 192 158
c77 12 163 10 163 98zM197 15c125 0 182 84 182 142v152c-15 -33 -78 -43 -153 -52c-98 -12 -172 -41 -172 -123c0 -79 51 -119 143 -119z" />
    <glyph glyph-name="aacute" unicode="&#xe1;" horiz-adv-x="490" 
d="M295 721h41l-81 -124h-29zM379 381c0 78 -59 114 -138 114c-103 0 -158 -49 -163 -126h-30c5 71 49 152 193 152c93 0 168 -39 168 -158v-260c0 -40 -5 -95 76 -78v-26c-13 -3 -25 -4 -33 -4c-52 0 -73 24 -73 89h-2c-41 -68 -107 -95 -188 -95c-98 0 -165 53 -165 136
c0 96 60 138 192 158c77 12 163 10 163 98zM197 15c125 0 182 84 182 142v152c-15 -33 -78 -43 -153 -52c-98 -12 -172 -41 -172 -123c0 -79 51 -119 143 -119z" />
    <glyph glyph-name="abreve" unicode="&#x103;" horiz-adv-x="490" 
d="M238 618c-69 0 -112 51 -116 107h28c7 -39 35 -81 88 -81c54 0 82 42 89 81h28c-4 -56 -47 -107 -117 -107zM379 381c0 78 -59 114 -138 114c-103 0 -158 -49 -163 -126h-30c5 71 49 152 193 152c93 0 168 -39 168 -158v-260c0 -40 -5 -95 76 -78v-26
c-13 -3 -25 -4 -33 -4c-52 0 -73 24 -73 89h-2c-41 -68 -107 -95 -188 -95c-98 0 -165 53 -165 136c0 96 60 138 192 158c77 12 163 10 163 98zM197 15c125 0 182 84 182 142v152c-15 -33 -78 -43 -153 -52c-98 -12 -172 -41 -172 -123c0 -79 51 -119 143 -119z" />
    <glyph glyph-name="acircumflex" unicode="&#xe2;" horiz-adv-x="490" 
d="M255 726l88 -104h-39l-66 81h-1l-66 -81h-40l87 104h37zM379 381c0 78 -59 114 -138 114c-103 0 -158 -49 -163 -126h-30c5 71 49 152 193 152c93 0 168 -39 168 -158v-260c0 -40 -5 -95 76 -78v-26c-13 -3 -25 -4 -33 -4c-52 0 -73 24 -73 89h-2
c-41 -68 -107 -95 -188 -95c-98 0 -165 53 -165 136c0 96 60 138 192 158c77 12 163 10 163 98zM197 15c125 0 182 84 182 142v152c-15 -33 -78 -43 -153 -52c-98 -12 -172 -41 -172 -123c0 -79 51 -119 143 -119z" />
    <glyph glyph-name="adieresis" unicode="&#xe4;" horiz-adv-x="490" 
d="M127 672c0 17 11 32 32 32s33 -15 33 -32s-12 -32 -33 -32s-32 15 -32 32zM282 672c0 17 11 32 32 32s33 -15 33 -32s-12 -32 -33 -32s-32 15 -32 32zM379 381c0 78 -59 114 -138 114c-103 0 -158 -49 -163 -126h-30c5 71 49 152 193 152c93 0 168 -39 168 -158v-260
c0 -40 -5 -95 76 -78v-26c-13 -3 -25 -4 -33 -4c-52 0 -73 24 -73 89h-2c-41 -68 -107 -95 -188 -95c-98 0 -165 53 -165 136c0 96 60 138 192 158c77 12 163 10 163 98zM197 15c125 0 182 84 182 142v152c-15 -33 -78 -43 -153 -52c-98 -12 -172 -41 -172 -123
c0 -79 51 -119 143 -119z" />
    <glyph glyph-name="agrave" unicode="&#xe0;" horiz-adv-x="490" 
d="M178 721l69 -124h-29l-81 124h41zM379 381c0 78 -59 114 -138 114c-103 0 -158 -49 -163 -126h-30c5 71 49 152 193 152c93 0 168 -39 168 -158v-260c0 -40 -5 -95 76 -78v-26c-13 -3 -25 -4 -33 -4c-52 0 -73 24 -73 89h-2c-41 -68 -107 -95 -188 -95
c-98 0 -165 53 -165 136c0 96 60 138 192 158c77 12 163 10 163 98zM197 15c125 0 182 84 182 142v152c-15 -33 -78 -43 -153 -52c-98 -12 -172 -41 -172 -123c0 -79 51 -119 143 -119z" />
    <glyph glyph-name="amacron" unicode="&#x101;" horiz-adv-x="490" 
d="M123 679h228v-26h-228v26zM379 381c0 78 -59 114 -138 114c-103 0 -158 -49 -163 -126h-30c5 71 49 152 193 152c93 0 168 -39 168 -158v-260c0 -40 -5 -95 76 -78v-26c-13 -3 -25 -4 -33 -4c-52 0 -73 24 -73 89h-2c-41 -68 -107 -95 -188 -95c-98 0 -165 53 -165 136
c0 96 60 138 192 158c77 12 163 10 163 98zM197 15c125 0 182 84 182 142v152c-15 -33 -78 -43 -153 -52c-98 -12 -172 -41 -172 -123c0 -79 51 -119 143 -119z" />
    <glyph glyph-name="aogonek" unicode="&#x105;" horiz-adv-x="490" 
d="M508 -137h3v-24c-12 -6 -29 -11 -54 -11c-62 0 -91 32 -91 75c0 39 36 72 75 92c-44 4 -62 29 -62 89h-2c-41 -68 -107 -95 -188 -95c-98 0 -165 53 -165 136c0 96 60 138 192 158c77 12 163 10 163 98c0 78 -59 114 -138 114c-103 0 -158 -49 -163 -126h-30
c5 71 49 152 193 152c93 0 168 -39 168 -158v-260c0 -40 -5 -95 76 -78v-26c-3 -1 -7 -1 -10 -2c-51 -30 -78 -58 -78 -93c0 -29 19 -51 62 -51c21 0 34 3 49 10zM379 157v152c-15 -33 -78 -43 -153 -52c-98 -12 -172 -41 -172 -123c0 -79 51 -119 143 -119
c125 0 182 84 182 142z" />
    <glyph glyph-name="aring" unicode="&#xe5;" horiz-adv-x="490" 
d="M237 580c-45 0 -80 32 -80 80c0 47 35 82 80 82c46 0 82 -35 82 -82c0 -48 -36 -80 -82 -80zM237 604c36 0 56 23 56 56s-20 57 -56 57s-55 -24 -55 -57s19 -56 55 -56zM379 381c0 78 -59 114 -138 114c-103 0 -158 -49 -163 -126h-30c5 71 49 152 193 152
c93 0 168 -39 168 -158v-260c0 -40 -5 -95 76 -78v-26c-13 -3 -25 -4 -33 -4c-52 0 -73 24 -73 89h-2c-41 -68 -107 -95 -188 -95c-98 0 -165 53 -165 136c0 96 60 138 192 158c77 12 163 10 163 98zM197 15c125 0 182 84 182 142v152c-15 -33 -78 -43 -153 -52
c-98 -12 -172 -41 -172 -123c0 -79 51 -119 143 -119z" />
    <glyph glyph-name="atilde" unicode="&#xe3;" horiz-adv-x="490" 
d="M168 706c55 0 90 -53 129 -53c22 0 34 17 37 53h30c-3 -53 -28 -79 -67 -79c-53 0 -90 53 -129 53c-21 0 -34 -17 -37 -53h-30c3 52 28 79 67 79zM379 381c0 78 -59 114 -138 114c-103 0 -158 -49 -163 -126h-30c5 71 49 152 193 152c93 0 168 -39 168 -158v-260
c0 -40 -5 -95 76 -78v-26c-13 -3 -25 -4 -33 -4c-52 0 -73 24 -73 89h-2c-41 -68 -107 -95 -188 -95c-98 0 -165 53 -165 136c0 96 60 138 192 158c77 12 163 10 163 98zM197 15c125 0 182 84 182 142v152c-15 -33 -78 -43 -153 -52c-98 -12 -172 -41 -172 -123
c0 -79 51 -119 143 -119z" />
    <glyph glyph-name="ae" unicode="&#xe6;" horiz-adv-x="853" 
d="M612 15c119 0 167 84 179 139h30c-22 -94 -89 -165 -209 -165c-103 0 -179 55 -213 146c-24 -124 -138 -146 -210 -146c-98 0 -165 53 -165 136c0 96 60 137 192 158c77 12 163 10 163 98c0 78 -59 114 -138 114c-103 0 -158 -49 -163 -126h-30c5 71 49 152 193 152
c84 0 153 -32 166 -126c38 81 111 126 204 126c149 0 217 -111 217 -261h-419v-6c0 -131 68 -239 203 -239zM611 495c-127 0 -199 -100 -202 -209h389c0 103 -58 209 -187 209zM379 177v132c-15 -33 -78 -43 -153 -52c-98 -12 -172 -41 -172 -123c0 -79 51 -119 143 -119
c125 0 182 83 182 162z" />
    <glyph glyph-name="b" unicode="b" horiz-adv-x="524" 
d="M278 521c122 0 220 -98 220 -266s-98 -266 -220 -266c-100 0 -164 65 -193 139h-2v-128h-30v715h30v-336h2c30 79 93 142 193 142zM271 15c115 0 197 90 197 240s-82 240 -197 240c-99 0 -188 -90 -188 -240s89 -240 188 -240z" />
    <glyph glyph-name="c" unicode="c" horiz-adv-x="491" 
d="M442 346c-4 59 -62 149 -178 149c-135 0 -208 -114 -208 -240s73 -240 208 -240c117 0 174 89 178 153h30c-7 -96 -89 -179 -208 -179c-141 0 -238 106 -238 266s97 266 238 266c119 0 197 -81 208 -175h-30z" />
    <glyph glyph-name="cacute" unicode="&#x107;" horiz-adv-x="491" 
d="M319 721h41l-81 -124h-29zM442 346c-4 59 -62 149 -178 149c-135 0 -208 -114 -208 -240s73 -240 208 -240c117 0 174 89 178 153h30c-7 -96 -89 -179 -208 -179c-141 0 -238 106 -238 266s97 266 238 266c119 0 197 -81 208 -175h-30z" />
    <glyph glyph-name="ccaron" unicode="&#x10d;" horiz-adv-x="491" 
d="M279 621h-37l-87 104h40l66 -81h1l66 81h39zM442 346c-4 59 -62 149 -178 149c-135 0 -208 -114 -208 -240s73 -240 208 -240c117 0 174 89 178 153h30c-7 -96 -89 -179 -208 -179c-141 0 -238 106 -238 266s97 266 238 266c119 0 197 -81 208 -175h-30z" />
    <glyph glyph-name="ccedilla" unicode="&#xe7;" horiz-adv-x="491" 
d="M264 15c117 0 174 89 178 153h30c-7 -94 -85 -175 -199 -179l-49 -42v-2c60 13 96 -15 96 -57c0 -46 -41 -69 -95 -69c-35 0 -68 10 -94 26l10 17c24 -13 52 -20 80 -20c41 0 69 14 69 44c0 27 -19 39 -54 39c-19 0 -35 -5 -47 -11l-12 15l65 61
c-129 10 -216 113 -216 265c0 160 97 266 238 266c119 0 197 -81 208 -175h-30c-4 59 -62 149 -178 149c-135 0 -208 -114 -208 -240s73 -240 208 -240z" />
    <glyph glyph-name="cdotaccent" unicode="&#x10b;" horiz-adv-x="491" 
d="M229 672c0 17 11 32 32 32s33 -15 33 -32s-12 -32 -33 -32s-32 15 -32 32zM442 346c-4 59 -62 149 -178 149c-135 0 -208 -114 -208 -240s73 -240 208 -240c117 0 174 89 178 153h30c-7 -96 -89 -179 -208 -179c-141 0 -238 106 -238 266s97 266 238 266
c119 0 197 -81 208 -175h-30z" />
    <glyph glyph-name="d" unicode="d" horiz-adv-x="524" 
d="M441 715h30v-715h-30v128h-2c-29 -74 -93 -139 -193 -139c-122 0 -220 98 -220 266s98 266 220 266c100 0 163 -63 193 -142h2v336zM253 15c99 0 188 90 188 240s-89 240 -188 240c-115 0 -197 -90 -197 -240s82 -240 197 -240z" />
    <glyph glyph-name="eth" unicode="&#xf0;" horiz-adv-x="521" 
d="M347 630c74 -77 149 -192 149 -360c0 -161 -84 -280 -234 -280c-144 0 -236 119 -236 268s88 267 230 267c79 0 151 -40 189 -107c-16 70 -71 145 -128 204l-162 -43l-7 27l146 39c-31 29 -61 54 -84 70h43c21 -17 45 -37 71 -62l161 43l7 -27zM262 16
c133 0 203 111 203 249c0 133 -80 234 -209 234c-127 0 -200 -109 -200 -241s78 -242 206 -242z" />
    <glyph glyph-name="dcaron" unicode="&#x10f;" horiz-adv-x="573" 
d="M565 719c21 0 31 -16 31 -54c0 -20 -2 -86 -55 -102v28c28 13 28 54 28 68c-17 -6 -33 4 -33 29c0 20 13 31 29 31zM441 379v336h30v-715h-30v128h-2c-29 -74 -93 -139 -193 -139c-122 0 -220 98 -220 266s98 266 220 266c100 0 163 -63 193 -142h2zM253 15
c99 0 188 90 188 240s-89 240 -188 240c-115 0 -197 -90 -197 -240s82 -240 197 -240z" />
    <glyph glyph-name="dcroat" unicode="&#x111;" horiz-adv-x="528" 
d="M538 633v-26h-67v-607h-30v128h-2c-29 -74 -93 -139 -193 -139c-122 0 -220 98 -220 266s98 266 220 266c100 0 163 -63 193 -142h2v228h-137v26h137v82h30v-82h67zM253 15c99 0 188 90 188 240s-89 240 -188 240c-115 0 -197 -90 -197 -240s82 -240 197 -240z" />
    <glyph glyph-name="e" unicode="e" horiz-adv-x="499" 
d="M259 15c119 0 167 84 179 139h30c-22 -94 -89 -165 -209 -165c-143 0 -233 106 -233 266c0 167 94 266 232 266c149 0 217 -111 217 -261h-419v-6c0 -131 68 -239 203 -239zM258 495c-127 0 -199 -100 -202 -209h389c0 103 -58 209 -187 209z" />
    <glyph glyph-name="eacute" unicode="&#xe9;" horiz-adv-x="499" 
d="M359 721l-81 -124h-29l69 124h41zM259 15c119 0 167 84 179 139h30c-22 -94 -89 -165 -209 -165c-143 0 -233 106 -233 266c0 167 94 266 232 266c149 0 217 -111 217 -261h-419v-6c0 -131 68 -239 203 -239zM258 495c-127 0 -199 -100 -202 -209h389
c0 103 -58 209 -187 209z" />
    <glyph glyph-name="ecaron" unicode="&#x11b;" horiz-adv-x="499" 
d="M278 621h-37l-87 104h40l66 -81h1l66 81h39zM259 15c119 0 167 84 179 139h30c-22 -94 -89 -165 -209 -165c-143 0 -233 106 -233 266c0 167 94 266 232 266c149 0 217 -111 217 -261h-419v-6c0 -131 68 -239 203 -239zM258 495c-127 0 -199 -100 -202 -209h389
c0 103 -58 209 -187 209z" />
    <glyph glyph-name="ecircumflex" unicode="&#xea;" horiz-adv-x="499" 
d="M260 703l-66 -81h-40l87 104h37l88 -104h-39l-66 81h-1zM259 15c119 0 167 84 179 139h30c-22 -94 -89 -165 -209 -165c-143 0 -233 106 -233 266c0 167 94 266 232 266c149 0 217 -111 217 -261h-419v-6c0 -131 68 -239 203 -239zM258 495c-127 0 -199 -100 -202 -209
h389c0 103 -58 209 -187 209z" />
    <glyph glyph-name="edieresis" unicode="&#xeb;" horiz-adv-x="499" 
d="M182 640c-21 0 -32 15 -32 32s11 32 32 32s33 -15 33 -32s-12 -32 -33 -32zM337 640c-21 0 -32 15 -32 32s11 32 32 32s33 -15 33 -32s-12 -32 -33 -32zM259 15c119 0 167 84 179 139h30c-22 -94 -89 -165 -209 -165c-143 0 -233 106 -233 266c0 167 94 266 232 266
c149 0 217 -111 217 -261h-419v-6c0 -131 68 -239 203 -239zM258 495c-127 0 -199 -100 -202 -209h389c0 103 -58 209 -187 209z" />
    <glyph glyph-name="edotaccent" unicode="&#x117;" horiz-adv-x="499" 
d="M260 640c-21 0 -32 15 -32 32s11 32 32 32s33 -15 33 -32s-12 -32 -33 -32zM259 15c119 0 167 84 179 139h30c-22 -94 -89 -165 -209 -165c-143 0 -233 106 -233 266c0 167 94 266 232 266c149 0 217 -111 217 -261h-419v-6c0 -131 68 -239 203 -239zM258 495
c-127 0 -199 -100 -202 -209h389c0 103 -58 209 -187 209z" />
    <glyph glyph-name="egrave" unicode="&#xe8;" horiz-adv-x="499" 
d="M270 597h-29l-81 124h41zM259 15c119 0 167 84 179 139h30c-22 -94 -89 -165 -209 -165c-143 0 -233 106 -233 266c0 167 94 266 232 266c149 0 217 -111 217 -261h-419v-6c0 -131 68 -239 203 -239zM258 495c-127 0 -199 -100 -202 -209h389c0 103 -58 209 -187 209z
" />
    <glyph glyph-name="emacron" unicode="&#x113;" horiz-adv-x="499" 
d="M374 679v-26h-228v26h228zM259 15c119 0 167 84 179 139h30c-22 -94 -89 -165 -209 -165c-143 0 -233 106 -233 266c0 167 94 266 232 266c149 0 217 -111 217 -261h-419v-6c0 -131 68 -239 203 -239zM258 495c-127 0 -199 -100 -202 -209h389c0 103 -58 209 -187 209z
" />
    <glyph glyph-name="eogonek" unicode="&#x119;" horiz-adv-x="499" 
d="M259 15c119 0 167 84 179 139h30c-18 -75 -64 -135 -143 -157c-53 -30 -80 -58 -80 -94c0 -29 19 -51 62 -51c21 0 34 3 49 10h3v-24c-12 -6 -29 -11 -54 -11c-62 0 -91 32 -91 75c0 36 31 67 66 88c-7 -1 -14 -1 -21 -1c-143 0 -233 106 -233 266c0 167 94 266 232 266
c149 0 217 -111 217 -261h-419v-6c0 -131 68 -239 203 -239zM258 495c-127 0 -199 -100 -202 -209h389c0 103 -58 209 -187 209z" />
    <glyph glyph-name="f" unicode="f" horiz-adv-x="254" 
d="M232 690c-71 10 -111 4 -111 -108v-68h111v-26h-111v-488h-30v488h-73v26h73v76c0 100 39 131 102 131c5 0 23 -1 39 -5v-26z" />
    <glyph glyph-name="g" unicode="g" horiz-adv-x="521" 
d="M438 514h30v-486c0 -136 -84 -199 -216 -199c-130 0 -204 68 -212 145h30c11 -61 66 -119 182 -119c112 0 186 55 186 174v125h-2c-29 -74 -103 -125 -193 -125c-112 0 -217 78 -217 246s105 246 217 246c90 0 163 -49 193 -128h2v121zM250 55c89 0 188 70 188 220
s-99 220 -188 220c-105 0 -194 -70 -194 -220s89 -220 194 -220z" />
    <glyph glyph-name="gbreve" unicode="&#x11f;" horiz-adv-x="521" 
d="M247 618c-69 0 -112 51 -116 107h28c7 -39 35 -81 88 -81c54 0 82 42 89 81h28c-4 -56 -47 -107 -117 -107zM438 514h30v-486c0 -136 -84 -199 -216 -199c-130 0 -204 68 -212 145h30c11 -61 66 -119 182 -119c112 0 186 55 186 174v125h-2c-29 -74 -103 -125 -193 -125
c-112 0 -217 78 -217 246s105 246 217 246c90 0 163 -49 193 -128h2v121zM250 55c89 0 188 70 188 220s-99 220 -188 220c-105 0 -194 -70 -194 -220s89 -220 194 -220z" />
    <glyph glyph-name="gcommaaccent" unicode="&#x123;" horiz-adv-x="521" 
d="M248 606c-21 0 -31 16 -31 54c0 20 2 86 55 102v-28c-28 -13 -28 -54 -28 -68c17 6 33 -4 33 -29c0 -20 -13 -31 -29 -31zM438 514h30v-486c0 -136 -84 -199 -216 -199c-130 0 -204 68 -212 145h30c11 -61 66 -119 182 -119c112 0 186 55 186 174v125h-2
c-29 -74 -103 -125 -193 -125c-112 0 -217 78 -217 246s105 246 217 246c90 0 163 -49 193 -128h2v121zM250 55c89 0 188 70 188 220s-99 220 -188 220c-105 0 -194 -70 -194 -220s89 -220 194 -220z" />
    <glyph glyph-name="gdotaccent" unicode="&#x121;" horiz-adv-x="521" 
d="M246 640c-21 0 -32 15 -32 32s11 32 32 32s33 -15 33 -32s-12 -32 -33 -32zM438 514h30v-486c0 -136 -84 -199 -216 -199c-130 0 -204 68 -212 145h30c11 -61 66 -119 182 -119c112 0 186 55 186 174v125h-2c-29 -74 -103 -125 -193 -125c-112 0 -217 78 -217 246
s105 246 217 246c90 0 163 -49 193 -128h2v121zM250 55c89 0 188 70 188 220s-99 220 -188 220c-105 0 -194 -70 -194 -220s89 -220 194 -220z" />
    <glyph glyph-name="h" unicode="h" horiz-adv-x="483" 
d="M280 521c80 0 154 -52 154 -153v-368h-30v348c0 76 -25 147 -138 147c-114 0 -181 -86 -181 -141v-354h-30v715h30v-294h2c32 49 85 100 193 100z" />
    <glyph glyph-name="hbar" unicode="&#x127;" horiz-adv-x="507" 
d="M304 521c80 0 154 -52 154 -153v-368h-30v348c0 76 -25 147 -138 147c-114 0 -181 -86 -181 -141v-354h-30v607h-85v26h85v82h30v-82h112v-26h-112v-186h2c32 49 85 100 193 100z" />
    <glyph glyph-name="i" unicode="i" horiz-adv-x="158" 
d="M79 637c-11 0 -25 9 -25 24c0 16 14 24 25 24c12 0 25 -8 25 -24c0 -15 -13 -24 -25 -24zM64 514h30v-514h-30v514z" />
    <glyph glyph-name="dotlessi" unicode="&#x131;" horiz-adv-x="90" 
d="M30 514h30v-514h-30v514z" />
    <glyph glyph-name="iacute" unicode="&#xed;" horiz-adv-x="141" 
d="M126 721h41l-81 -124h-29zM54 514h30v-514h-30v514z" />
    <glyph glyph-name="icircumflex" unicode="&#xee;" horiz-adv-x="90" 
d="M62 726l88 -104h-39l-66 81h-1l-66 -81h-40l87 104h37zM30 514h30v-514h-30v514z" />
    <glyph glyph-name="idieresis" unicode="&#xef;" horiz-adv-x="224" 
d="M2 672c0 17 11 32 32 32s33 -15 33 -32s-12 -32 -33 -32s-32 15 -32 32zM157 672c0 17 11 32 32 32s33 -15 33 -32s-12 -32 -33 -32s-32 15 -32 32zM98 514h30v-514h-30v514z" />
    <glyph glyph-name="i.loclTRK" horiz-adv-x="173" 
d="M54 672c0 17 11 32 32 32s33 -15 33 -32s-12 -32 -33 -32s-32 15 -32 32zM72 514h30v-514h-30v514z" />
    <glyph glyph-name="igrave" unicode="&#xec;" horiz-adv-x="90" 
d="M-15 721l69 -124h-29l-81 124h41zM30 514h30v-514h-30v514z" />
    <glyph glyph-name="imacron" unicode="&#x12b;" horiz-adv-x="217" 
d="M-6 679h228v-26h-228v26zM94 514h30v-514h-30v514z" />
    <glyph glyph-name="iogonek" unicode="&#x12f;" horiz-adv-x="90" 
d="M44 640c-21 0 -32 15 -32 32s11 32 32 32s33 -15 33 -32s-12 -32 -33 -32zM86 -138h3v-24c-12 -6 -29 -11 -54 -11c-62 0 -91 32 -91 75s43 78 86 98v514h30v-514c-56 -31 -85 -60 -85 -97c0 -29 19 -51 62 -51c21 0 34 3 49 10z" />
    <glyph glyph-name="j" unicode="j" horiz-adv-x="158" 
d="M78 637c-11 0 -25 9 -25 24c0 16 14 24 25 24c12 0 25 -8 25 -24c0 -15 -13 -24 -25 -24zM63 514h30v-579c0 -53 -7 -104 -65 -104c-20 0 -39 4 -50 9v26c60 -15 85 -14 85 61v587z" />
    <glyph glyph-name="k" unicode="k" horiz-adv-x="450" 
d="M53 715h30v-483l293 282h42l-206 -197l237 -317h-37l-221 297l-108 -105v-192h-30v715z" />
    <glyph glyph-name="kcommaaccent" unicode="&#x137;" horiz-adv-x="450" 
d="M53 715h30v-483l293 282h42l-206 -197l237 -317h-37l-221 297l-108 -105v-192h-30v715zM247 -144c-17 -6 -33 4 -33 29c0 20 13 31 29 31c21 0 31 -16 31 -54c0 -20 -2 -86 -55 -102v28c28 13 28 54 28 68z" />
    <glyph glyph-name="l" unicode="l" horiz-adv-x="142" 
d="M56 715h30v-715h-30v715z" />
    <glyph glyph-name="lacute" unicode="&#x13a;" horiz-adv-x="143" 
d="M126 922h41l-81 -124h-29zM56 715h30v-715h-30v715z" />
    <glyph glyph-name="lcaron" unicode="&#x13e;" horiz-adv-x="175" 
d="M168 659c-17 -6 -33 4 -33 29c0 20 13 31 29 31c21 0 31 -16 31 -54c0 -20 -2 -86 -55 -102v28c28 13 28 54 28 68zM56 715h30v-715h-30v715z" />
    <glyph glyph-name="lcommaaccent" unicode="&#x13c;" horiz-adv-x="148" 
d="M51 715h30v-715h-30v715zM69 -144c-17 -6 -33 4 -33 29c0 20 13 31 29 31c21 0 31 -16 31 -54c0 -20 -2 -86 -55 -102v28c28 13 28 54 28 68z" />
    <glyph glyph-name="lslash" unicode="&#x142;" horiz-adv-x="174" 
d="M178 448v-38l-71 -59v-351h-30v327l-72 -60v38l72 60v350h30v-326z" />
    <glyph glyph-name="m" unicode="m" horiz-adv-x="770" 
d="M573 521c99 0 147 -62 147 -165v-356h-30v336c0 102 -30 159 -119 159c-107 0 -170 -78 -170 -147v-348h-30v336c0 116 -49 159 -118 159c-106 0 -170 -88 -170 -147v-348h-30v514h30v-95h2c26 46 75 102 168 102c78 0 124 -40 138 -111h2c35 65 85 111 180 111z" />
    <glyph glyph-name="n" unicode="n" horiz-adv-x="482" 
d="M278 521c80 0 154 -52 154 -153v-368h-30v348c0 76 -25 147 -138 147c-114 0 -181 -86 -181 -141v-354h-30v514h30v-93h2c32 49 85 100 193 100z" />
    <glyph glyph-name="nacute" unicode="&#x144;" horiz-adv-x="482" 
d="M351 721l-81 -124h-29l69 124h41zM278 521c80 0 154 -52 154 -153v-368h-30v348c0 76 -25 147 -138 147c-114 0 -181 -86 -181 -141v-354h-30v514h30v-93h2c32 49 85 100 193 100z" />
    <glyph glyph-name="ncaron" unicode="&#x148;" horiz-adv-x="482" 
d="M270 621h-37l-87 104h40l66 -81h1l66 81h39zM278 521c80 0 154 -52 154 -153v-368h-30v348c0 76 -25 147 -138 147c-114 0 -181 -86 -181 -141v-354h-30v514h30v-93h2c32 49 85 100 193 100z" />
    <glyph glyph-name="ncommaaccent" unicode="&#x146;" horiz-adv-x="482" 
d="M278 521c80 0 154 -52 154 -153v-368h-30v348c0 76 -25 147 -138 147c-114 0 -181 -86 -181 -141v-354h-30v514h30v-93h2c32 49 85 100 193 100zM242 -84c21 0 31 -16 31 -54c0 -20 -2 -86 -55 -102v28c28 13 28 54 28 68c-17 -6 -33 4 -33 29c0 20 13 31 29 31z" />
    <glyph glyph-name="eng" unicode="&#x14b;" horiz-adv-x="482" 
d="M278 521c80 0 154 -52 154 -153v-413c0 -84 -27 -111 -77 -111c-14 0 -29 1 -41 3v26c73 -13 88 9 88 71v404c0 76 -25 147 -138 147c-114 0 -181 -86 -181 -141v-354h-30v514h30v-93h2c32 49 85 100 193 100z" />
    <glyph glyph-name="ntilde" unicode="&#xf1;" horiz-adv-x="482" 
d="M183 680c-21 0 -34 -17 -37 -53h-30c3 52 28 79 67 79c55 0 90 -53 129 -53c22 0 34 17 37 53h30c-3 -53 -28 -79 -67 -79c-53 0 -90 53 -129 53zM278 521c80 0 154 -52 154 -153v-368h-30v348c0 76 -25 147 -138 147c-114 0 -181 -86 -181 -141v-354h-30v514h30v-93h2
c32 49 85 100 193 100z" />
    <glyph glyph-name="o" unicode="o" horiz-adv-x="522" 
d="M261 -11c-146 0 -235 107 -235 266s89 266 235 266s235 -107 235 -266s-89 -266 -235 -266zM261 15c131 0 205 101 205 240s-74 240 -205 240s-205 -101 -205 -240s74 -240 205 -240z" />
    <glyph glyph-name="oacute" unicode="&#xf3;" horiz-adv-x="522" 
d="M318 721h41l-81 -124h-29zM261 -11c-146 0 -235 107 -235 266s89 266 235 266s235 -107 235 -266s-89 -266 -235 -266zM261 15c131 0 205 101 205 240s-74 240 -205 240s-205 -101 -205 -240s74 -240 205 -240z" />
    <glyph glyph-name="ocircumflex" unicode="&#xf4;" horiz-adv-x="522" 
d="M278 726l88 -104h-39l-66 81h-1l-66 -81h-40l87 104h37zM261 -11c-146 0 -235 107 -235 266s89 266 235 266s235 -107 235 -266s-89 -266 -235 -266zM261 15c131 0 205 101 205 240s-74 240 -205 240s-205 -101 -205 -240s74 -240 205 -240z" />
    <glyph glyph-name="odieresis" unicode="&#xf6;" horiz-adv-x="522" 
d="M150 672c0 17 11 32 32 32s33 -15 33 -32s-12 -32 -33 -32s-32 15 -32 32zM305 672c0 17 11 32 32 32s33 -15 33 -32s-12 -32 -33 -32s-32 15 -32 32zM261 -11c-146 0 -235 107 -235 266s89 266 235 266s235 -107 235 -266s-89 -266 -235 -266zM261 15
c131 0 205 101 205 240s-74 240 -205 240s-205 -101 -205 -240s74 -240 205 -240z" />
    <glyph glyph-name="ograve" unicode="&#xf2;" horiz-adv-x="522" 
d="M201 721l69 -124h-29l-81 124h41zM261 -11c-146 0 -235 107 -235 266s89 266 235 266s235 -107 235 -266s-89 -266 -235 -266zM261 15c131 0 205 101 205 240s-74 240 -205 240s-205 -101 -205 -240s74 -240 205 -240z" />
    <glyph glyph-name="ohungarumlaut" unicode="&#x151;" horiz-adv-x="522" 
d="M251 721h41l-81 -124h-29zM378 721h41l-81 -124h-29zM261 -11c-146 0 -235 107 -235 266s89 266 235 266s235 -107 235 -266s-89 -266 -235 -266zM261 15c131 0 205 101 205 240s-74 240 -205 240s-205 -101 -205 -240s74 -240 205 -240z" />
    <glyph glyph-name="omacron" unicode="&#x14d;" horiz-adv-x="522" 
d="M146 679h228v-26h-228v26zM261 -11c-146 0 -235 107 -235 266s89 266 235 266s235 -107 235 -266s-89 -266 -235 -266zM261 15c131 0 205 101 205 240s-74 240 -205 240s-205 -101 -205 -240s74 -240 205 -240z" />
    <glyph glyph-name="oslash" unicode="&#xf8;" horiz-adv-x="547" 
d="M524 499l-64 -68c32 -46 49 -106 49 -176c0 -159 -89 -266 -235 -266c-70 0 -127 25 -167 68l-63 -67l-20 21l64 68c-32 46 -49 106 -49 176c0 159 89 266 235 266c70 0 126 -24 167 -67l62 66zM69 255c0 -60 14 -113 40 -154l312 332c-35 39 -84 62 -147 62
c-131 0 -205 -101 -205 -240zM479 255c0 60 -14 113 -40 154l-312 -331c34 -40 84 -63 147 -63c131 0 205 101 205 240z" />
    <glyph glyph-name="otilde" unicode="&#xf5;" horiz-adv-x="522" 
d="M191 706c55 0 90 -53 129 -53c22 0 34 17 37 53h30c-3 -53 -28 -79 -67 -79c-53 0 -90 53 -129 53c-21 0 -34 -17 -37 -53h-30c3 52 28 79 67 79zM261 -11c-146 0 -235 107 -235 266s89 266 235 266s235 -107 235 -266s-89 -266 -235 -266zM261 15c131 0 205 101 205 240
s-74 240 -205 240s-205 -101 -205 -240s74 -240 205 -240z" />
    <glyph glyph-name="oe" unicode="&#x153;" horiz-adv-x="935" 
d="M698 15c119 0 167 84 179 139h30c-22 -94 -89 -165 -209 -165c-108 0 -186 61 -218 159c-31 -98 -109 -159 -219 -159c-146 0 -235 107 -235 266s89 266 235 266c110 0 188 -61 219 -159c32 101 112 159 217 159c149 0 217 -111 217 -261h-418v-5v-20
c6 -122 74 -220 202 -220zM261 15c125 0 198 91 204 220v20v20c-6 129 -79 220 -204 220c-131 0 -205 -101 -205 -240s74 -240 205 -240zM697 495c-127 0 -199 -100 -202 -209h389c0 103 -58 209 -187 209z" />
    <glyph glyph-name="p" unicode="p" horiz-adv-x="525" 
d="M278 521c122 0 220 -98 220 -266s-98 -266 -220 -266c-100 0 -164 65 -193 139h-2v-294h-30v680h30v-135h2c30 79 93 142 193 142zM271 15c115 0 197 90 197 240s-82 240 -197 240c-99 0 -188 -90 -188 -240s89 -240 188 -240z" />
    <glyph glyph-name="thorn" unicode="&#xfe;" horiz-adv-x="523" 
d="M278 521c122 0 220 -98 220 -266s-98 -266 -220 -266c-100 0 -164 65 -193 139h-2v-294h-30v881h30v-336h2c30 79 93 142 193 142zM271 15c115 0 197 90 197 240s-82 240 -197 240c-99 0 -188 -90 -188 -240s89 -240 188 -240z" />
    <glyph glyph-name="q" unicode="q" horiz-adv-x="525" 
d="M442 514h30v-680h-30v294h-2c-29 -74 -93 -139 -193 -139c-122 0 -220 98 -220 266s98 266 220 266c100 0 163 -63 193 -142h2v135zM254 15c99 0 188 90 188 240s-89 240 -188 240c-115 0 -197 -90 -197 -240s82 -240 197 -240z" />
    <glyph glyph-name="r" unicode="r" horiz-adv-x="294" 
d="M240 521c16 0 27 -1 37 -3v-26h-2c-98 15 -192 -60 -192 -173v-319h-30v514h30v-110h2c22 67 84 117 155 117z" />
    <glyph glyph-name="racute" unicode="&#x155;" horiz-adv-x="294" 
d="M273 721l-81 -124h-29l69 124h41zM240 521c16 0 27 -1 37 -3v-26h-2c-98 15 -192 -60 -192 -173v-319h-30v514h30v-110h2c22 67 84 117 155 117z" />
    <glyph glyph-name="rcaron" unicode="&#x159;" horiz-adv-x="294" 
d="M192 621h-37l-87 104h40l66 -81h1l66 81h39zM85 404c22 67 84 117 155 117c16 0 27 -1 37 -3v-26h-2c-98 15 -192 -60 -192 -173v-319h-30v514h30v-110h2z" />
    <glyph glyph-name="rcommaaccent" unicode="&#x157;" horiz-adv-x="288" 
d="M234 521c16 0 27 -1 37 -3v-26h-2c-98 15 -192 -60 -192 -173v-319h-30v514h30v-110h2c22 67 84 117 155 117zM61 -84c21 0 31 -16 31 -54c0 -20 -2 -86 -55 -102v28c28 13 28 54 28 68c-17 -6 -33 4 -33 29c0 20 13 31 29 31z" />
    <glyph glyph-name="s" unicode="s" horiz-adv-x="444" 
d="M240 284c110 -28 181 -52 181 -150c0 -86 -72 -145 -182 -145c-146 0 -214 74 -219 171h30c5 -84 69 -145 189 -145c83 0 152 49 152 114c0 97 -83 107 -176 132c-104 28 -177 46 -177 132c0 77 67 128 177 128c126 0 177 -73 188 -144h-30c-11 58 -56 118 -158 118
c-72 0 -147 -30 -147 -102c0 -69 78 -85 172 -109z" />
    <glyph glyph-name="sacute" unicode="&#x15b;" horiz-adv-x="444" 
d="M278 721h41l-81 -124h-29zM240 284c110 -28 181 -52 181 -150c0 -86 -72 -145 -182 -145c-146 0 -214 74 -219 171h30c5 -84 69 -145 189 -145c83 0 152 49 152 114c0 97 -83 107 -176 132c-104 28 -177 46 -177 132c0 77 67 128 177 128c126 0 177 -73 188 -144h-30
c-11 58 -56 118 -158 118c-72 0 -147 -30 -147 -102c0 -69 78 -85 172 -109z" />
    <glyph glyph-name="scaron" unicode="&#x161;" horiz-adv-x="444" 
d="M238 621h-37l-87 104h40l66 -81h1l66 81h39zM240 284c110 -28 181 -52 181 -150c0 -86 -72 -145 -182 -145c-146 0 -214 74 -219 171h30c5 -84 69 -145 189 -145c83 0 152 49 152 114c0 97 -83 107 -176 132c-104 28 -177 46 -177 132c0 77 67 128 177 128
c126 0 177 -73 188 -144h-30c-11 58 -56 118 -158 118c-72 0 -147 -30 -147 -102c0 -69 78 -85 172 -109z" />
    <glyph glyph-name="scedilla" unicode="&#x15f;" horiz-adv-x="444" 
d="M257 -10l-49 -43v-2c60 13 96 -15 96 -57c0 -46 -41 -69 -95 -69c-35 0 -68 10 -94 26l10 17c24 -13 52 -20 80 -20c41 0 69 14 69 44c0 27 -19 39 -54 39c-19 0 -35 -5 -47 -11l-12 15l65 60c-137 5 -201 77 -206 171h30c5 -84 69 -145 189 -145c83 0 152 49 152 114
c0 97 -83 107 -176 132c-104 28 -177 46 -177 132c0 77 67 128 177 128c126 0 177 -73 188 -144h-30c-11 58 -56 118 -158 118c-72 0 -147 -30 -147 -102c0 -69 78 -85 172 -109c110 -28 181 -52 181 -150c0 -81 -64 -138 -164 -144z" />
    <glyph glyph-name="scommaaccent" unicode="&#x219;" horiz-adv-x="444" 
d="M240 284c110 -28 181 -52 181 -150c0 -86 -72 -145 -182 -145c-146 0 -214 74 -219 171h30c5 -84 69 -145 189 -145c83 0 152 49 152 114c0 97 -83 107 -176 132c-104 28 -177 46 -177 132c0 77 67 128 177 128c126 0 177 -73 188 -144h-30c-11 58 -56 118 -158 118
c-72 0 -147 -30 -147 -102c0 -69 78 -85 172 -109zM254 -144c-17 -6 -33 4 -33 29c0 20 13 31 29 31c21 0 31 -16 31 -54c0 -20 -2 -86 -55 -102v28c28 13 28 54 28 68z" />
    <glyph glyph-name="germandbls" unicode="&#xdf;" horiz-adv-x="472" 
d="M83 504v-504h-30v524c0 127 57 202 183 202c88 0 166 -50 166 -167c0 -81 -33 -134 -101 -162v-2c89 -27 146 -86 146 -201c0 -117 -71 -205 -176 -205c-41 0 -64 4 -90 14v26c166 -47 236 46 236 165c0 148 -120 189 -199 189h-28v26h25c82 0 157 45 157 150
c0 81 -48 141 -136 141c-119 0 -153 -78 -153 -196z" />
    <glyph glyph-name="t" unicode="t" horiz-adv-x="265" 
d="M236 488h-113v-355c0 -68 1 -128 113 -104v-26c-18 -4 -33 -6 -54 -6c-48 0 -89 24 -89 128v363h-75v26h75v166h30v-166h113v-26z" />
    <glyph glyph-name="tbar" unicode="&#x167;" horiz-adv-x="272" 
d="M243 317h-125v-184c0 -68 1 -128 113 -104v-26c-18 -4 -33 -6 -54 -6c-48 0 -89 24 -89 128v192h-63v26h63v145h-75v26h75v166h30v-166h113v-26h-113v-145h125v-26z" />
    <glyph glyph-name="tcaron" unicode="&#x165;" horiz-adv-x="282" 
d="M226 669c-17 -6 -33 4 -33 29c0 20 13 31 29 31c21 0 31 -16 31 -54c0 -20 -2 -86 -55 -102v28c28 13 28 54 28 68zM123 680v-166h113v-26h-113v-355c0 -68 1 -128 113 -104v-26c-18 -4 -33 -6 -54 -6c-48 0 -89 24 -89 128v363h-75v26h75v166h30z" />
    <glyph glyph-name="uni0163" unicode="&#x163;" horiz-adv-x="265" 
d="M236 488h-113v-355c0 -68 1 -128 113 -104v-26c-14 -3 -26 -5 -40 -6l-56 -48v-2c60 13 96 -15 96 -57c0 -46 -41 -69 -95 -69c-35 0 -68 10 -94 26l10 17c24 -13 52 -20 80 -20c41 0 69 14 69 44c0 27 -19 39 -54 39c-19 0 -35 -5 -47 -11l-12 15l72 67
c-40 6 -72 35 -72 127v363h-75v26h75v166h30v-166h113v-26z" />
    <glyph glyph-name="uni021B" unicode="&#x21b;" horiz-adv-x="265" 
d="M236 488h-113v-355c0 -68 1 -128 113 -104v-26c-18 -4 -33 -6 -54 -6c-48 0 -89 24 -89 128v363h-75v26h75v166h30v-166h113v-26zM182 -82c21 0 31 -16 31 -54c0 -20 -2 -86 -55 -102v28c28 13 28 54 28 68c-17 -6 -33 4 -33 29c0 20 13 31 29 31z" />
    <glyph glyph-name="u" unicode="u" horiz-adv-x="482" 
d="M399 514h30v-514h-30v93h-2c-32 -49 -85 -100 -193 -100c-80 0 -154 52 -154 153v368h30v-348c0 -76 25 -147 138 -147c114 0 181 86 181 141v354z" />
    <glyph glyph-name="uacute" unicode="&#xfa;" horiz-adv-x="482" 
d="M339 721l-81 -124h-29l69 124h41zM399 514h30v-514h-30v93h-2c-32 -49 -85 -100 -193 -100c-80 0 -154 52 -154 153v368h30v-348c0 -76 25 -147 138 -147c114 0 181 86 181 141v354z" />
    <glyph glyph-name="ucircumflex" unicode="&#xfb;" horiz-adv-x="482" 
d="M240 703l-66 -81h-40l87 104h37l88 -104h-39l-66 81h-1zM399 514h30v-514h-30v93h-2c-32 -49 -85 -100 -193 -100c-80 0 -154 52 -154 153v368h30v-348c0 -76 25 -147 138 -147c114 0 181 86 181 141v354z" />
    <glyph glyph-name="udieresis" unicode="&#xfc;" horiz-adv-x="482" 
d="M162 640c-21 0 -32 15 -32 32s11 32 32 32s33 -15 33 -32s-12 -32 -33 -32zM317 640c-21 0 -32 15 -32 32s11 32 32 32s33 -15 33 -32s-12 -32 -33 -32zM399 514h30v-514h-30v93h-2c-32 -49 -85 -100 -193 -100c-80 0 -154 52 -154 153v368h30v-348
c0 -76 25 -147 138 -147c114 0 181 86 181 141v354z" />
    <glyph glyph-name="ugrave" unicode="&#xf9;" horiz-adv-x="482" 
d="M250 597h-29l-81 124h41zM399 514h30v-514h-30v93h-2c-32 -49 -85 -100 -193 -100c-80 0 -154 52 -154 153v368h30v-348c0 -76 25 -147 138 -147c114 0 181 86 181 141v354z" />
    <glyph glyph-name="uhungarumlaut" unicode="&#x171;" horiz-adv-x="482" 
d="M272 721l-81 -124h-29l69 124h41zM399 721l-81 -124h-29l69 124h41zM399 514h30v-514h-30v93h-2c-32 -49 -85 -100 -193 -100c-80 0 -154 52 -154 153v368h30v-348c0 -76 25 -147 138 -147c114 0 181 86 181 141v354z" />
    <glyph glyph-name="umacron" unicode="&#x16b;" horiz-adv-x="482" 
d="M354 679v-26h-228v26h228zM399 514h30v-514h-30v93h-2c-32 -49 -85 -100 -193 -100c-80 0 -154 52 -154 153v368h30v-348c0 -76 25 -147 138 -147c114 0 181 86 181 141v354z" />
    <glyph glyph-name="uogonek" unicode="&#x173;" horiz-adv-x="482" 
d="M455 -138h3v-24c-12 -6 -29 -11 -54 -11c-62 0 -91 32 -91 75s43 78 86 98v93h-2c-32 -49 -85 -100 -193 -100c-80 0 -154 52 -154 153v368h30v-348c0 -76 25 -147 138 -147c114 0 181 86 181 141v354h30v-514c-56 -31 -85 -60 -85 -97c0 -29 19 -51 62 -51
c21 0 34 3 49 10z" />
    <glyph glyph-name="uring" unicode="&#x16f;" horiz-adv-x="482" 
d="M240 580c-45 0 -80 32 -80 80c0 47 35 82 80 82c46 0 82 -35 82 -82c0 -48 -36 -80 -82 -80zM240 717c-36 0 -55 -24 -55 -57s19 -56 55 -56s56 23 56 56s-20 57 -56 57zM399 514h30v-514h-30v93h-2c-32 -49 -85 -100 -193 -100c-80 0 -154 52 -154 153v368h30v-348
c0 -76 25 -147 138 -147c114 0 181 86 181 141v354z" />
    <glyph glyph-name="v" unicode="v" horiz-adv-x="434" 
d="M5 514h31l180 -474h1l181 474h31l-196 -514h-33z" />
    <glyph glyph-name="w" unicode="w" horiz-adv-x="694" 
d="M8 514h31l150 -477h1l136 477h41l137 -477h1l150 477h31l-162 -514h-40l-137 475h-2l-135 -475h-40z" />
    <glyph glyph-name="wacute" unicode="&#x1e83;" horiz-adv-x="694" 
d="M404 721h41l-81 -124h-29zM8 514h31l150 -477h1l136 477h41l137 -477h1l150 477h31l-162 -514h-40l-137 475h-2l-135 -475h-40z" />
    <glyph glyph-name="wcircumflex" unicode="&#x175;" horiz-adv-x="694" 
d="M364 726l88 -104h-39l-66 81h-1l-66 -81h-40l87 104h37zM8 514h31l150 -477h1l136 477h41l137 -477h1l150 477h31l-162 -514h-40l-137 475h-2l-135 -475h-40z" />
    <glyph glyph-name="wdieresis" unicode="&#x1e85;" horiz-adv-x="694" 
d="M236 672c0 17 11 32 32 32s33 -15 33 -32s-12 -32 -33 -32s-32 15 -32 32zM391 672c0 17 11 32 32 32s33 -15 33 -32s-12 -32 -33 -32s-32 15 -32 32zM8 514h31l150 -477h1l136 477h41l137 -477h1l150 477h31l-162 -514h-40l-137 475h-2l-135 -475h-40z" />
    <glyph glyph-name="wgrave" unicode="&#x1e81;" horiz-adv-x="694" 
d="M287 721l69 -124h-29l-81 124h41zM8 514h31l150 -477h1l136 477h41l137 -477h1l150 477h31l-162 -514h-40l-137 475h-2l-135 -475h-40z" />
    <glyph glyph-name="x" unicode="x" horiz-adv-x="465" 
d="M23 514h37l171 -230h2l171 230h37l-189 -251l206 -263h-38l-187 244h-2l-186 -244h-38l205 263z" />
    <glyph glyph-name="y" unicode="y" horiz-adv-x="440" 
d="M435 514l-202 -531c-37 -97 -60 -152 -128 -152c-28 0 -48 6 -60 10v26h2c34 -7 76 -16 100 9c21 21 47 76 61 126l-203 512h32l186 -471h1l179 471h32z" />
    <glyph glyph-name="yacute" unicode="&#xfd;" horiz-adv-x="440" 
d="M277 721h41l-81 -124h-29zM435 514l-202 -531c-37 -97 -60 -152 -128 -152c-28 0 -48 6 -60 10v26h2c34 -7 76 -16 100 9c21 21 47 76 61 126l-203 512h32l186 -471h1l179 471h32z" />
    <glyph glyph-name="ycircumflex" unicode="&#x177;" horiz-adv-x="440" 
d="M237 726l88 -104h-39l-66 81h-1l-66 -81h-40l87 104h37zM435 514l-202 -531c-37 -97 -60 -152 -128 -152c-28 0 -48 6 -60 10v26h2c34 -7 76 -16 100 9c21 21 47 76 61 126l-203 512h32l186 -471h1l179 471h32z" />
    <glyph glyph-name="ydieresis" unicode="&#xff;" horiz-adv-x="440" 
d="M109 672c0 17 11 32 32 32s33 -15 33 -32s-12 -32 -33 -32s-32 15 -32 32zM264 672c0 17 11 32 32 32s33 -15 33 -32s-12 -32 -33 -32s-32 15 -32 32zM435 514l-202 -531c-37 -97 -60 -152 -128 -152c-28 0 -48 6 -60 10v26h2c34 -7 76 -16 100 9c21 21 47 76 61 126
l-203 512h32l186 -471h1l179 471h32z" />
    <glyph glyph-name="ygrave" unicode="&#x1ef3;" horiz-adv-x="440" 
d="M160 721l69 -124h-29l-81 124h41zM435 514l-202 -531c-37 -97 -60 -152 -128 -152c-28 0 -48 6 -60 10v26h2c34 -7 76 -16 100 9c21 21 47 76 61 126l-203 512h32l186 -471h1l179 471h32z" />
    <glyph glyph-name="z" unicode="z" horiz-adv-x="441" 
d="M30 26l338 460v2h-322v26h360v-26l-338 -460v-2h348v-26h-386v26z" />
    <glyph glyph-name="zacute" unicode="&#x17a;" horiz-adv-x="441" 
d="M280 721h41l-81 -124h-29zM30 26l338 460v2h-322v26h360v-26l-338 -460v-2h348v-26h-386v26z" />
    <glyph glyph-name="zcaron" unicode="&#x17e;" horiz-adv-x="441" 
d="M240 621h-37l-87 104h40l66 -81h1l66 81h39zM30 26l338 460v2h-322v26h360v-26l-338 -460v-2h348v-26h-386v26z" />
    <glyph glyph-name="zdotaccent" unicode="&#x17c;" horiz-adv-x="441" 
d="M190 672c0 17 11 32 32 32s33 -15 33 -32s-12 -32 -33 -32s-32 15 -32 32zM30 26l338 460v2h-322v26h360v-26l-338 -460v-2h348v-26h-386v26z" />
    <glyph glyph-name="zero" unicode="0" horiz-adv-x="575" 
d="M288 -11c-169 0 -248 160 -248 356s79 357 248 357s247 -161 247 -357s-78 -356 -247 -356zM288 17c147 0 215 146 215 328s-68 329 -215 329s-216 -147 -216 -329s69 -328 216 -328z" />
    <glyph glyph-name="one" unicode="1" horiz-adv-x="301" 
d="M185 691h32v-691h-32v583c-30 -60 -101 -70 -151 -70v28c100 0 151 55 151 150z" />
    <glyph glyph-name="two" unicode="2" horiz-adv-x="509" 
d="M80 479h-32c0 113 80 223 225 223c118 0 200 -76 200 -194c0 -251 -381 -205 -408 -478v-2h408v-28h-442c0 135 78 222 198 285c118 62 212 108 212 223c0 89 -62 166 -168 166c-117 0 -193 -90 -193 -195z" />
    <glyph glyph-name="three" unicode="3" horiz-adv-x="526" 
d="M76 494h-32c0 117 77 208 226 208c103 0 197 -66 197 -178c0 -86 -45 -134 -112 -162v-2c91 -27 139 -91 139 -176c0 -126 -92 -195 -224 -195c-150 0 -248 89 -248 235h32c0 -120 79 -207 216 -207c120 0 192 64 192 167c0 108 -94 163 -172 163h-75v28h71
c82 0 149 59 149 149c0 76 -54 150 -165 150c-147 0 -194 -92 -194 -180z" />
    <glyph glyph-name="four" unicode="4" horiz-adv-x="534" 
d="M405 0h-32v182h-349v28l349 481h32v-481h105v-28h-105v-182zM373 640l-312 -430h312v430z" />
    <glyph glyph-name="five" unicode="5" horiz-adv-x="504" 
d="M258 441c135 0 213 -95 213 -218c0 -140 -85 -234 -225 -234c-154 0 -218 99 -221 195h32c5 -100 72 -167 189 -167c105 0 193 64 193 206c0 132 -86 190 -188 190c-98 0 -156 -56 -177 -91h-35l75 369h323v-28h-298l-59 -291v-2c45 50 112 71 178 71z" />
    <glyph glyph-name="six" unicode="6" horiz-adv-x="538" 
d="M72 256c18 132 125 178 212 178c134 0 219 -93 219 -220c0 -128 -85 -225 -223 -225c-155 0 -240 117 -240 327c0 260 90 386 249 386c103 0 185 -65 193 -176h-32c-7 92 -73 148 -161 148c-129 0 -217 -98 -217 -358v-58v-2zM280 17c120 0 191 84 191 197
c0 111 -70 192 -187 192c-88 0 -195 -54 -195 -203c0 -89 66 -186 191 -186z" />
    <glyph glyph-name="seven" unicode="7" horiz-adv-x="489" 
d="M23 691h450v-24c-247 -187 -287 -484 -287 -667h-32c0 191 46 478 275 663v1h-406v27z" />
    <glyph glyph-name="eight" unicode="8" horiz-adv-x="544" 
d="M33 192c0 94 61 155 145 184v2c-64 26 -114 75 -114 153c0 109 92 171 208 171s208 -62 208 -171c0 -78 -51 -127 -114 -153v-2c83 -29 145 -90 145 -184c0 -131 -118 -203 -239 -203s-239 72 -239 203zM272 391c99 0 176 53 176 140c0 92 -77 143 -176 143
s-176 -51 -176 -143c0 -87 77 -140 176 -140zM272 17c110 0 207 67 207 175c0 105 -97 171 -207 171s-207 -66 -207 -171c0 -108 97 -175 207 -175z" />
    <glyph glyph-name="nine" unicode="9" horiz-adv-x="536" 
d="M467 435c-18 -132 -125 -178 -212 -178c-134 0 -219 93 -219 220c0 128 85 225 223 225c155 0 240 -117 240 -327c0 -260 -90 -386 -249 -386c-103 0 -185 65 -193 176h32c7 -92 73 -148 161 -148c129 0 217 98 217 358v58v2zM259 674c-120 0 -191 -84 -191 -197
c0 -111 70 -192 187 -192c88 0 195 54 195 203c0 89 -66 186 -191 186z" />
    <glyph glyph-name="fraction" unicode="&#x2044;" horiz-adv-x="169" 
d="M315 715h36l-497 -715h-36z" />
    <glyph glyph-name="asterisk" unicode="*" horiz-adv-x="344" 
d="M302 608l-108 -40l70 -96l-20 -14l-72 99l-71 -99l-20 14l69 96l-108 40l8 22l108 -39v124h27v-124l109 39z" />
    <glyph glyph-name="backslash" unicode="\" horiz-adv-x="356" 
d="M16 715h32l292 -715h-33z" />
    <glyph glyph-name="periodcentered" unicode="&#xb7;" horiz-adv-x="145" 
d="M74 282c-14 0 -30 10 -30 30s16 30 30 30s30 -10 30 -30s-16 -30 -30 -30z" />
    <glyph glyph-name="bullet" unicode="&#x2022;" horiz-adv-x="212" 
d="M106 250c-43 0 -70 32 -70 70c0 39 27 70 70 70s70 -31 70 -70c0 -38 -27 -70 -70 -70z" />
    <glyph glyph-name="colon" unicode=":" horiz-adv-x="154" 
d="M77 300c-14 0 -30 10 -30 30s16 30 30 30s30 -10 30 -30s-16 -30 -30 -30zM77 -4c-14 0 -30 10 -30 30s16 30 30 30s30 -10 30 -30s-16 -30 -30 -30z" />
    <glyph glyph-name="comma" unicode="," horiz-adv-x="127" 
d="M57 -4c-17 -6 -33 4 -33 29c0 20 13 31 29 31c21 0 31 -16 31 -54c0 -20 -2 -86 -55 -102v28c28 13 28 54 28 68z" />
    <glyph glyph-name="ellipsis" unicode="&#x2026;" horiz-adv-x="426" 
d="M73 -4c-14 0 -30 10 -30 30s16 30 30 30s30 -10 30 -30s-16 -30 -30 -30zM213 -4c-14 0 -30 10 -30 30s16 30 30 30s30 -10 30 -30s-16 -30 -30 -30zM353 -4c-14 0 -30 10 -30 30s16 30 30 30s30 -10 30 -30s-16 -30 -30 -30z" />
    <glyph glyph-name="exclam" unicode="!" horiz-adv-x="201" 
d="M69 715h40v-242l-10 -289h-20l-10 289v242zM102 -4c-14 0 -30 10 -30 30s16 30 30 30s30 -10 30 -30s-16 -30 -30 -30z" />
    <glyph glyph-name="exclamdown" unicode="&#xa1;" horiz-adv-x="191" 
d="M92 589c14 0 30 -10 30 -30s-16 -30 -30 -30s-30 10 -30 30s16 30 30 30zM59 -130v242l10 289h20l10 -289v-242h-40z" />
    <glyph glyph-name="numbersign" unicode="#" horiz-adv-x="535" 
d="M498 441h-114l-33 -185h118l-5 -28h-118l-41 -228h-32l41 228h-157l-41 -228h-32l41 228h-93l5 28h93l33 185h-99l5 28h99l39 215h32l-39 -215h157l39 215h32l-39 -215h114zM319 256l33 185h-157l-33 -185h157z" />
    <glyph glyph-name="period" unicode="." horiz-adv-x="146" 
d="M73 -4c-14 0 -30 10 -30 30s16 30 30 30s30 -10 30 -30s-16 -30 -30 -30z" />
    <glyph glyph-name="question" unicode="?" horiz-adv-x="479" 
d="M57 513h-32c0 112 80 213 220 213c111 0 196 -63 196 -170c0 -89 -76 -145 -117 -182c-61 -54 -90 -80 -90 -201h-32c0 126 35 164 113 232c41 36 94 81 94 151c0 79 -55 142 -164 142c-110 0 -188 -76 -188 -185zM230 -4c-14 0 -30 10 -30 30s16 30 30 30s30 -10 30 -30
s-16 -30 -30 -30z" />
    <glyph glyph-name="questiondown" unicode="&#xbf;" horiz-adv-x="479" 
d="M249 588c14 0 30 -10 30 -30s-16 -30 -30 -30s-30 10 -30 30s16 30 30 30zM422 71h32c0 -112 -80 -213 -220 -213c-111 0 -196 63 -196 170c0 89 76 145 117 182c61 54 90 80 90 201h32c0 -126 -35 -164 -113 -232c-41 -36 -94 -81 -94 -151c0 -79 55 -142 164 -142
c110 0 188 76 188 185z" />
    <glyph glyph-name="quotedbl" unicode="&#x22;" horiz-adv-x="235" 
d="M43 715h32v-201h-32v201zM160 715h32v-201h-32v201z" />
    <glyph glyph-name="quotesingle" unicode="'" horiz-adv-x="118" 
d="M43 715h32v-201h-32v201z" />
    <glyph glyph-name="semicolon" unicode=";" horiz-adv-x="153" 
d="M77 301c-14 0 -30 10 -30 30s16 30 30 30s30 -10 30 -30s-16 -30 -30 -30zM61 -4c-17 -6 -33 4 -33 29c0 20 13 31 29 31c21 0 31 -16 31 -54c0 -20 -2 -86 -55 -102v28c28 13 28 54 28 68z" />
    <glyph glyph-name="slash" unicode="/" horiz-adv-x="370" 
d="M354 715l-291 -715h-33l292 715h32z" />
    <glyph glyph-name="underscore" unicode="_" horiz-adv-x="375" 
d="M-2 -138h379v-28h-379v28z" />
    <glyph glyph-name="braceleft" unicode="{" horiz-adv-x="263" 
d="M24 333c41 -1 79 29 79 100v158c0 103 17 164 110 164h11v-28h-11c-67 0 -78 -33 -78 -155v-145c0 -57 -24 -87 -62 -107v-2c38 -20 62 -50 62 -108v-140c0 -122 11 -159 78 -159h11v-28h-11c-93 0 -110 65 -110 168v153c0 71 -38 101 -79 101v28z" />
    <glyph glyph-name="braceright" unicode="}" horiz-adv-x="263" 
d="M239 333v-28c-41 0 -79 -30 -79 -101v-153c0 -103 -17 -168 -110 -168h-11v28h11c67 0 78 37 78 159v140c0 58 24 88 62 108v2c-38 20 -62 50 -62 107v145c0 122 -11 155 -78 155h-11v28h11c93 0 110 -61 110 -164v-158c0 -71 38 -101 79 -100z" />
    <glyph glyph-name="bracketleft" unicode="[" horiz-adv-x="253" 
d="M79 755h142v-28h-110v-816h110v-28h-142v872z" />
    <glyph glyph-name="bracketright" unicode="]" horiz-adv-x="253" 
d="M174 755v-872h-142v28h110v816h-110v28h142z" />
    <glyph glyph-name="parenleft" unicode="(" horiz-adv-x="250" 
d="M197 755h32c-72 -121 -125 -253 -125 -438c0 -181 53 -313 125 -434h-32c-63 101 -125 253 -125 434c0 187 62 337 125 438z" />
    <glyph glyph-name="parenright" unicode=")" horiz-adv-x="250" 
d="M53 755c63 -101 125 -251 125 -438c0 -181 -62 -333 -125 -434h-32c72 121 125 253 125 434c0 185 -53 317 -125 438h32z" />
    <glyph glyph-name="emdash" unicode="&#x2014;" horiz-adv-x="1000" 
d="M100 269h800v-28h-800v28z" />
    <glyph glyph-name="endash" unicode="&#x2013;" horiz-adv-x="500" 
d="M0 269h500v-28h-500v28z" />
    <glyph glyph-name="hyphen" unicode="-" horiz-adv-x="340" 
d="M36 269h268v-28h-268v28z" />
    <glyph glyph-name="guillemotleft" unicode="&#xab;" horiz-adv-x="330" 
d="M30 255v40l134 120v-40l-110 -99v-2l110 -99v-40zM166 255v40l134 120v-40l-110 -99v-2l110 -99v-40z" />
    <glyph glyph-name="guillemotright" unicode="&#xbb;" horiz-adv-x="330" 
d="M164 255l-134 -120v40l110 99v2l-110 99v40l134 -120v-40zM300 255l-134 -120v40l110 99v2l-110 99v40l134 -120v-40z" />
    <glyph glyph-name="guilsinglleft" unicode="&#x2039;" horiz-adv-x="247" 
d="M54 251v40l138 120v-40l-116 -99v-2l116 -99v-40z" />
    <glyph glyph-name="guilsinglright" unicode="&#x203a;" horiz-adv-x="247" 
d="M192 251l-138 -120v40l116 99v2l-116 99v40l138 -120v-40z" />
    <glyph glyph-name="quotedblbase" unicode="&#x201e;" horiz-adv-x="265" 
d="M74 -4c-17 -6 -33 4 -33 29c0 20 13 31 29 31c21 0 31 -16 31 -54c0 -20 -2 -86 -55 -102v28c28 13 28 54 28 68zM196 -4c-17 -6 -33 4 -33 29c0 20 13 31 29 31c21 0 31 -16 31 -54c0 -20 -2 -86 -55 -102v28c28 13 28 54 28 68z" />
    <glyph glyph-name="quotedblleft" unicode="&#x201c;" horiz-adv-x="250" 
d="M58 623c17 6 33 -4 33 -29c0 -20 -13 -31 -29 -31c-21 0 -31 16 -31 54c0 20 2 86 55 102v-28c-28 -13 -28 -54 -28 -68zM180 623c17 6 33 -4 33 -29c0 -20 -13 -31 -29 -31c-21 0 -31 16 -31 54c0 20 2 86 55 102v-28c-28 -13 -28 -54 -28 -68z" />
    <glyph glyph-name="quotedblright" unicode="&#x201d;" horiz-adv-x="261" 
d="M70 659c-17 -6 -33 4 -33 29c0 20 13 31 29 31c21 0 31 -16 31 -54c0 -20 -2 -86 -55 -102v28c28 13 28 54 28 68zM192 659c-17 -6 -33 4 -33 29c0 20 13 31 29 31c21 0 31 -16 31 -54c0 -20 -2 -86 -55 -102v28c28 13 28 54 28 68z" />
    <glyph glyph-name="quoteleft" unicode="&#x2018;" horiz-adv-x="132" 
d="M62 623c17 6 33 -4 33 -29c0 -20 -13 -31 -29 -31c-21 0 -31 16 -31 54c0 20 2 86 55 102v-28c-28 -13 -28 -54 -28 -68z" />
    <glyph glyph-name="quoteright" unicode="&#x2019;" horiz-adv-x="133" 
d="M64 659c-17 -6 -33 4 -33 29c0 20 13 31 29 31c21 0 31 -16 31 -54c0 -20 -2 -86 -55 -102v28c28 13 28 54 28 68z" />
    <glyph glyph-name="quotesinglbase" unicode="&#x201a;" horiz-adv-x="143" 
d="M74 -4c-17 -6 -33 4 -33 29c0 20 13 31 29 31c21 0 31 -16 31 -54c0 -20 -2 -86 -55 -102v28c28 13 28 54 28 68z" />
    <glyph glyph-name="space" unicode=" " horiz-adv-x="230" 
 />
    <glyph glyph-name="cent" unicode="&#xa2;" horiz-adv-x="494" 
d="M274 15c110 5 164 91 168 153h30c-7 -93 -84 -174 -198 -179v-74h-32v75c-129 10 -216 113 -216 265s87 255 216 265v71h32v-70c113 -5 187 -84 198 -175h-30c-4 57 -59 144 -168 149v-480zM56 255c0 -119 65 -227 186 -239v478c-121 -12 -186 -120 -186 -239z" />
    <glyph glyph-name="currency" unicode="&#xa4;" horiz-adv-x="439" 
d="M403 344c0 -54 -16 -96 -42 -128l61 -64l-20 -21l-60 64c-35 -31 -79 -47 -123 -47s-88 15 -123 46l-60 -63l-19 20l60 64c-26 32 -43 75 -43 129s16 97 42 129l-59 65l19 20l60 -64c35 30 79 46 123 46c43 0 88 -16 122 -46l61 64l20 -20l-61 -65c25 -32 42 -75 42 -129
zM219 176c81 0 152 59 152 168s-71 168 -152 168c-82 0 -153 -59 -153 -168s71 -168 153 -168z" />
    <glyph glyph-name="dollar" unicode="$" horiz-adv-x="546" 
d="M515 175c0 -98 -73 -182 -222 -186v-74h-32v75c-145 7 -232 93 -241 230h32c9 -114 74 -195 209 -202v320c-126 16 -213 80 -213 175c0 105 91 173 213 176v68h32v-69c126 -6 195 -68 203 -172h-32c-9 80 -53 138 -171 144v-297c169 -24 222 -84 222 -188zM80 513
c0 -81 68 -125 181 -145v293c-109 -3 -181 -61 -181 -148zM293 17c133 4 189 76 190 158c1 96 -49 139 -190 159v-317z" />
    <glyph glyph-name="Euro" unicode="&#x20ac;" horiz-adv-x="603" 
d="M344 17c124 0 191 102 197 221h32c-15 -148 -90 -249 -229 -249c-138 0 -229 107 -249 279h-65v28h63c-1 15 -2 31 -2 47s1 32 2 47h-63v28h65c20 172 111 278 249 278s213 -101 229 -217h-32c-12 93 -74 189 -197 189s-199 -98 -217 -250h246v-28h-248
c-1 -15 -2 -31 -2 -47s1 -32 2 -47h248v-28h-246c18 -153 94 -251 217 -251z" />
    <glyph glyph-name="sterling" unicode="&#xa3;" horiz-adv-x="524" 
d="M486 74l18 -22c-29 -30 -62 -63 -125 -63c-76 0 -116 62 -184 62c-43 0 -94 -18 -142 -51l-19 25c58 48 97 118 97 201c0 28 -8 55 -18 82h-79v26h68c-24 53 -53 108 -53 174c0 82 67 188 223 188c151 0 222 -99 222 -212h-32c0 117 -77 184 -190 184
c-102 0 -191 -59 -191 -167c0 -63 31 -114 54 -167h179v-26h-168c10 -26 17 -53 17 -82c0 -64 -25 -130 -70 -175l1 -2c26 16 66 30 101 30c77 0 125 -62 184 -62c48 0 76 26 107 57z" />
    <glyph glyph-name="yen" unicode="&#xa5;" horiz-adv-x="529" 
d="M518 686l-234 -396h200v-28h-204v-90h204v-28h-204v-144h-32v144h-204v28h204v90h-204v28h200l-233 396h35l217 -370h2l217 370h36z" />
    <glyph glyph-name="plus" unicode="+" horiz-adv-x="524" 
d="M247 312h-193v28l193 -1l-1 203h32l-1 -203l193 1v-28h-193l1 -203h-32z" />
    <glyph glyph-name="minus" unicode="&#x2212;" horiz-adv-x="524" 
d="M54 340h416v-28h-416v28z" />
    <glyph glyph-name="multiply" unicode="&#xd7;" horiz-adv-x="513" 
d="M437 485l-160 -160l160 -160l-21 -21l-160 160l-160 -160l-21 21l160 160l-160 160l21 21l160 -160l160 160z" />
    <glyph glyph-name="divide" unicode="&#xf7;" horiz-adv-x="524" 
d="M262 454c-22 0 -34 11 -34 31s12 31 34 31c21 0 34 -11 34 -31s-13 -31 -34 -31zM54 313v28h416v-28h-416zM262 138c-22 0 -34 11 -34 31s12 31 34 31c21 0 34 -11 34 -31s-13 -31 -34 -31z" />
    <glyph glyph-name="equal" unicode="=" horiz-adv-x="522" 
d="M54 395h414v-28h-414v28zM54 254h414v-28h-414v28z" />
    <glyph glyph-name="notequal" unicode="&#x2260;" horiz-adv-x="522" 
d="M468 367h-142l-54 -113h196v-28h-210l-60 -125h-33l60 125h-171v28h185l54 113h-239v28h253l56 117h33l-56 -117h128v-28z" />
    <glyph glyph-name="greater" unicode="&#x3e;" horiz-adv-x="495" 
d="M54 126v32l358 152v2l-358 154v32l391 -167v-40z" />
    <glyph glyph-name="less" unicode="&#x3c;" horiz-adv-x="495" 
d="M441 126l-391 165v40l391 167v-32l-358 -154v-2l358 -152v-32z" />
    <glyph glyph-name="greaterequal" unicode="&#x2265;" horiz-adv-x="494" 
d="M54 159l353 153v1l-353 153v32l390 -170v-32l-390 -169v32zM444 0h-390v28h390v-28z" />
    <glyph glyph-name="lessequal" unicode="&#x2264;" horiz-adv-x="494" 
d="M440 159v-32l-390 169v32l390 170v-32l-353 -153v-1zM50 0v28h390v-28h-390z" />
    <glyph glyph-name="plusminus" unicode="&#xb1;" horiz-adv-x="524" 
d="M54 357h192v186h32v-186h192v-28h-192v-190h-32v190h-192v28zM54 28h416v-28h-416v28z" />
    <glyph glyph-name="approxequal" unicode="&#x2248;" horiz-adv-x="524" 
d="M373 343c-80 0 -176 46 -234 46c-42 0 -60 -17 -64 -57h-32c5 61 39 85 96 85c76 0 164 -46 234 -46c44 0 63 13 67 56h32c-5 -61 -39 -84 -99 -84zM373 205c-80 0 -176 46 -234 46c-42 0 -60 -16 -64 -57h-32c5 61 39 85 96 85c76 0 164 -46 234 -46c44 0 63 13 67 57
h32c-5 -61 -39 -85 -99 -85z" />
    <glyph glyph-name="asciitilde" unicode="~" horiz-adv-x="382" 
d="M116 353c-30 0 -44 -26 -47 -62h-32c4 56 33 90 79 90c63 0 102 -65 150 -65c29 0 45 25 47 61h32c-4 -55 -33 -89 -79 -89c-62 0 -102 65 -150 65z" />
    <glyph glyph-name="logicalnot" unicode="&#xac;" horiz-adv-x="525" 
d="M413 355h-353v28h385v-236h-32v208z" />
    <glyph glyph-name="emptyset" unicode="&#x2205;" horiz-adv-x="791" 
d="M666 594c59 -62 95 -148 95 -249c0 -214 -159 -356 -365 -356c-97 0 -184 32 -249 87l-65 -65l-21 21l65 65c-60 61 -96 147 -96 248c0 214 160 357 366 357c97 0 183 -32 248 -87l66 66l21 -22zM62 345c0 -92 31 -170 85 -227l475 475c-58 51 -137 81 -226 81
c-192 0 -334 -135 -334 -329zM396 17c191 0 333 132 333 328c0 91 -32 170 -85 227l-476 -475c59 -51 138 -80 228 -80z" />
    <glyph glyph-name="infinity" unicode="&#x221e;" horiz-adv-x="707" 
d="M36 304c0 83 43 167 146 167c81 0 134 -65 176 -139c44 79 88 139 166 139c99 0 146 -76 146 -167c0 -88 -46 -167 -144 -167c-78 0 -128 66 -169 139c-48 -85 -94 -139 -174 -139c-103 0 -147 85 -147 167zM68 304c0 -69 32 -139 115 -139c70 0 109 53 157 138
c-43 79 -88 140 -158 140c-83 0 -114 -69 -114 -139zM524 443c-67 0 -103 -57 -149 -139c43 -77 84 -139 151 -139c81 0 112 70 112 139c0 74 -31 139 -114 139z" />
    <glyph glyph-name="integral" unicode="&#x222b;" horiz-adv-x="343" 
d="M181 -5c0 -95 -16 -167 -104 -167c-19 0 -51 5 -65 10v28c99 -20 137 -18 137 132v571c0 95 16 167 104 167c19 0 51 -5 65 -10v-28c-99 20 -137 18 -137 -132v-571z" />
    <glyph glyph-name="product" unicode="&#x220f;" horiz-adv-x="656" 
d="M69 715h518v-815h-32v787h-454v-787h-32v815z" />
    <glyph glyph-name="summation" unicode="&#x2211;" horiz-adv-x="583" 
d="M81 687v-1l303 -351v-20l-305 -386v-1h467v-28h-505v29l312 395v1l-312 361v29h500v-28h-460z" />
    <glyph glyph-name="radical" unicode="&#x221a;" horiz-adv-x="552" 
d="M13 298h104l139 -354h1l252 771h32l-267 -815h-32l-146 370h-83v28z" />
    <glyph glyph-name="partialdiff" unicode="&#x2202;" horiz-adv-x="504" 
d="M260 466c86 0 148 -50 174 -123c-11 165 -78 307 -295 348v28c258 -44 327 -225 327 -424c0 -167 -79 -305 -231 -305c-120 0 -197 92 -197 215c0 148 92 261 222 261zM235 18c138 0 196 139 196 234c0 98 -60 186 -171 186c-112 0 -190 -100 -190 -232
c0 -100 58 -188 165 -188z" />
    <glyph glyph-name="percent" unicode="%" horiz-adv-x="713" 
d="M169 321c-96 0 -141 83 -141 184s45 184 141 184s140 -83 140 -184s-44 -184 -140 -184zM578 685l-409 -685h-35l409 685h35zM169 349c83 0 108 80 108 156s-25 156 -108 156c-84 0 -109 -80 -109 -156s25 -156 109 -156zM544 -11c-96 0 -141 83 -141 184s45 184 141 184
s140 -83 140 -184s-44 -184 -140 -184zM544 17c83 0 108 80 108 156s-25 156 -108 156c-84 0 -109 -80 -109 -156s25 -156 109 -156z" />
    <glyph glyph-name="perthousand" unicode="&#x2030;" horiz-adv-x="1045" 
d="M169 321c-96 0 -141 83 -141 184s45 184 141 184s140 -83 140 -184s-44 -184 -140 -184zM578 685l-409 -685h-35l409 685h35zM169 349c83 0 108 80 108 156s-25 156 -108 156c-84 0 -109 -80 -109 -156s25 -156 109 -156zM544 -11c-96 0 -141 83 -141 184s45 184 141 184
s140 -83 140 -184s-44 -184 -140 -184zM877 -11c-96 0 -141 83 -141 184s45 184 141 184s140 -83 140 -184s-44 -184 -140 -184zM544 17c83 0 108 80 108 156s-25 156 -108 156c-84 0 -109 -80 -109 -156s25 -156 109 -156zM877 17c83 0 108 80 108 156s-25 156 -108 156
c-84 0 -109 -80 -109 -156s25 -156 109 -156z" />
    <glyph glyph-name="arrowup" unicode="&#x2191;" horiz-adv-x="600" 
d="M570 441l-21 -21l-233 214v-634h-32v634l-233 -214l-21 21l270 250z" />
    <glyph glyph-name="uni2197" unicode="&#x2197;" horiz-adv-x="574" 
d="M544 234l-31 -3l-13 318l-447 -447l-23 23l447 446l-318 14l3 31l368 -14z" />
    <glyph glyph-name="arrowright" unicode="&#x2192;" horiz-adv-x="751" 
d="M471 51l-21 21l214 233h-634v32h634l-214 233l21 21l250 -270z" />
    <glyph glyph-name="uni2198" unicode="&#x2198;" horiz-adv-x="574" 
d="M544 410l-14 -368l-368 -14l-3 31l318 14l-447 446l23 23l447 -447l13 318z" />
    <glyph glyph-name="arrowdown" unicode="&#x2193;" horiz-adv-x="600" 
d="M570 210l-270 -250l-270 250l21 21l233 -214v634h32v-634l233 214z" />
    <glyph glyph-name="uni2199" unicode="&#x2199;" horiz-adv-x="600" 
d="M40 410l31 3l13 -318l447 447l23 -23l-447 -446l318 -14l-3 -31l-368 14z" />
    <glyph glyph-name="arrowleft" unicode="&#x2190;" horiz-adv-x="751" 
d="M280 51l-250 270l250 270l21 -21l-214 -233h634v-32h-634l214 -233z" />
    <glyph glyph-name="uni2196" unicode="&#x2196;" horiz-adv-x="600" 
d="M40 234l14 368l368 14l3 -31l-318 -14l447 -446l-23 -23l-447 447l-13 -318z" />
    <glyph glyph-name="arrowboth" unicode="&#x2194;" horiz-adv-x="1091" 
d="M811 591l250 -270l-250 -270l-21 21l214 233h-917l214 -233l-21 -21l-250 270l250 270l21 -21l-214 -233h917l-214 233z" />
    <glyph glyph-name="arrowupdn" unicode="&#x2195;" horiz-adv-x="600" 
d="M316 -120l233 214l21 -21l-270 -250l-270 250l21 21l233 -214v849l-233 -214l-21 21l270 250l270 -250l-21 -21l-233 214v-849z" />
    <glyph glyph-name="lozenge" unicode="&#x25ca;" horiz-adv-x="500" 
d="M231 715h38l201 -357l-199 -358h-38l-203 358zM62 358l189 -329h1l186 329l-188 328h-1z" />
    <glyph glyph-name="at" unicode="@" horiz-adv-x="862" 
d="M408 84c-104 0 -169 82 -169 204c0 118 70 230 195 230c69 0 122 -42 141 -123h1l12 114h28l-36 -283c-9 -66 15 -108 75 -108c88 0 139 102 139 229c0 216 -163 332 -344 332c-199 0 -381 -150 -381 -390c0 -216 151 -359 363 -359c78 0 144 23 192 45l12 -28
c-50 -24 -122 -45 -205 -45c-228 0 -394 154 -394 387c0 266 205 418 413 418c192 0 376 -123 376 -360c0 -148 -67 -257 -171 -257c-70 0 -103 47 -101 104c-28 -64 -77 -110 -146 -110zM407 112c100 0 156 101 156 220c0 101 -57 158 -129 158c-110 0 -163 -105 -163 -202
c0 -103 49 -176 136 -176z" />
    <glyph glyph-name="ampersand" unicode="&#x26;" horiz-adv-x="560" 
d="M561 0h-40l-78 102c-46 -65 -115 -113 -210 -113c-119 0 -198 78 -198 197c0 116 93 183 170 227c-51 63 -91 114 -91 178s42 135 144 135c92 0 144 -68 144 -135c0 -81 -54 -134 -151 -189l190 -246c24 47 39 101 42 152h32c-4 -57 -21 -122 -54 -178zM146 591
c0 -59 42 -109 85 -164c0 1 1 1 1 1c64 35 138 76 138 163c0 57 -42 107 -112 107c-80 0 -112 -53 -112 -107zM233 17c84 0 148 46 191 110l-192 251c-2 3 -5 6 -7 10c-74 -41 -158 -95 -158 -202s68 -169 166 -169z" />
    <glyph glyph-name="paragraph" unicode="&#xb6;" horiz-adv-x="454" 
d="M240 385h-40c-101 0 -171 45 -171 165s70 165 171 165h189v-715h-32v687h-85v-687h-32v385z" />
    <glyph glyph-name="section" unicode="&#xa7;" horiz-adv-x="545" 
d="M517 226c0 -80 -53 -132 -137 -138c40 -31 65 -64 65 -112c0 -67 -54 -121 -175 -121c-127 0 -177 76 -180 154h32c4 -69 40 -126 148 -126c88 0 143 30 143 93c0 81 -97 119 -190 173c-111 64 -195 100 -195 206c0 80 53 132 137 138c-40 31 -65 64 -65 112
c0 67 54 121 175 121c127 0 177 -76 180 -154h-32c-4 69 -40 126 -148 126c-88 0 -143 -30 -143 -93c0 -81 97 -119 190 -173c111 -64 195 -100 195 -206zM347 111c75 7 138 28 138 115c0 98 -88 127 -183 183c-38 23 -74 42 -104 61c-75 -7 -138 -28 -138 -115
c0 -98 88 -127 183 -183c38 -23 74 -42 104 -61z" />
    <glyph glyph-name="copyright" unicode="&#xa9;" horiz-adv-x="805" 
d="M403 -17c-227 0 -362 162 -362 373c0 209 135 372 362 372c220 0 361 -163 361 -372c0 -211 -141 -373 -361 -373zM403 11c201 0 329 147 329 345c0 197 -131 344 -329 344c-205 0 -330 -147 -330 -344c0 -198 122 -345 330 -345zM551 451c-11 60 -63 110 -146 110
c-106 0 -171 -86 -171 -205s65 -203 171 -203c92 0 143 56 151 132h30c-7 -98 -77 -160 -181 -160c-125 0 -203 97 -203 231s78 233 203 233c104 0 164 -61 177 -138h-31z" />
    <glyph glyph-name="registered" unicode="&#xae;" horiz-adv-x="522" 
d="M261 253c-130 0 -235 101 -235 239c0 137 105 239 235 239s235 -102 235 -239c0 -138 -105 -239 -235 -239zM261 281c109 0 203 85 203 211c0 125 -94 211 -203 211c-108 0 -203 -86 -203 -211c0 -126 95 -211 203 -211zM203 366h-32v259h109c48 0 81 -26 81 -71
c0 -32 -20 -56 -59 -65v-1c61 -13 39 -108 62 -119v-3h-30c-33 20 3 111 -67 111h-64v-111zM203 505h71c41 0 55 15 55 47s-16 45 -54 45h-72v-92z" />
    <glyph glyph-name="trademark" unicode="&#x2122;" horiz-adv-x="646" 
d="M135 687h-102v28h236v-28h-102v-248h-32v248zM316 715h50l93 -242h1l93 242h50v-276h-32v235h-2l-90 -235h-39l-90 235h-2v-235h-32v276z" />
    <glyph glyph-name="degree" unicode="&#xb0;" horiz-adv-x="375" 
d="M187 429c-103 0 -150 83 -150 150s47 150 150 150c102 0 150 -83 150 -150s-48 -150 -150 -150zM187 459c75 0 120 52 120 120s-45 120 -120 120s-120 -52 -120 -120s45 -120 120 -120z" />
    <glyph glyph-name="bar" unicode="|" horiz-adv-x="186" 
d="M77 744h32v-872h-32v872z" />
    <glyph glyph-name="brokenbar" unicode="&#xa6;" horiz-adv-x="186" 
d="M77 744h32v-360h-32v360zM77 245h32v-373h-32v373z" />
    <glyph glyph-name="dagger" unicode="&#x2020;" horiz-adv-x="511" 
d="M240 458h-204v28h204v229h32v-229h203v-28h-203v-635h-32v635z" />
    <glyph glyph-name="daggerdbl" unicode="&#x2021;" horiz-adv-x="517" 
d="M36 458v28h204v229h32v-229h203v-28h-203v-292h209v-28h-209v-315h-32v315h-200v28h200v292h-204z" />
    <glyph glyph-name="asciicircum" unicode="^" horiz-adv-x="380" 
d="M190 685h-1l-143 -245h-35l161 275h35l161 -275h-34z" />
    <glyph glyph-name="uni0308" unicode="&#x308;" 
d="M-250 672c0 17 11 32 32 32s33 -15 33 -32s-12 -32 -33 -32s-32 15 -32 32zM-95 672c0 17 11 32 32 32s33 -15 33 -32s-12 -32 -33 -32s-32 15 -32 32z" />
    <glyph glyph-name="uni0307" unicode="&#x307;" 
d="M-95 672c0 17 11 32 32 32s33 -15 33 -32s-12 -32 -33 -32s-32 15 -32 32z" />
    <glyph glyph-name="gravecomb" unicode="&#x300;" 
d="M-99 721l69 -124h-29l-81 124h41z" />
    <glyph glyph-name="acutecomb" unicode="&#x301;" 
d="M-71 721h41l-81 -124h-29z" />
    <glyph glyph-name="uni030B" unicode="&#x30b;" 
d="M-198 721h41l-81 -124h-29zM-71 721h41l-81 -124h-29z" />
    <glyph glyph-name="uni0302" unicode="&#x302;" 
d="M-212 726l88 -104h-39l-66 81h-1l-66 -81h-40l87 104h37z" />
    <glyph glyph-name="uni030C" unicode="&#x30c;" 
d="M-118 621h-37l-87 104h40l66 -81h1l66 81h39z" />
    <glyph glyph-name="uni0306" unicode="&#x306;" 
d="M-147 618c-69 0 -112 51 -116 107h28c7 -39 35 -81 88 -81c54 0 82 42 89 81h28c-4 -56 -47 -107 -117 -107z" />
    <glyph glyph-name="uni030A" unicode="&#x30a;" 
d="M-112 580c-45 0 -80 32 -80 80c0 47 35 82 80 82c46 0 82 -35 82 -82c0 -48 -36 -80 -82 -80zM-112 604c36 0 56 23 56 56s-20 57 -56 57s-55 -24 -55 -57s19 -56 55 -56z" />
    <glyph glyph-name="tildecomb" unicode="&#x303;" 
d="M-226 706c55 0 90 -53 129 -53c22 0 34 17 37 53h30c-3 -53 -28 -79 -67 -79c-53 0 -90 53 -129 53c-21 0 -34 -17 -37 -53h-30c3 52 28 79 67 79z" />
    <glyph glyph-name="uni0304" unicode="&#x304;" 
d="M-258 679h228v-26h-228v26z" />
    <glyph glyph-name="uni0312" unicode="&#x312;" 
d="M-63 666c17 6 33 -4 33 -29c0 -20 -13 -31 -29 -31c-21 0 -31 16 -31 54c0 20 2 86 55 102v-28c-28 -13 -28 -54 -28 -68z" />
    <glyph glyph-name="uni0326" unicode="&#x326;" 
d="M-57 -144c-17 -6 -33 4 -33 29c0 20 13 31 29 31c21 0 31 -16 31 -54c0 -20 -2 -86 -55 -102v28c28 13 28 54 28 68z" />
    <glyph glyph-name="uni0327" unicode="&#x327;" 
d="M-68 -3l-58 -50v-2c60 13 96 -15 96 -57c0 -46 -41 -69 -95 -69c-35 0 -68 10 -94 26l10 17c24 -13 52 -20 80 -20c41 0 69 14 69 44c0 27 -19 39 -54 39c-19 0 -35 -5 -47 -11l-12 15l73 68h32z" />
    <glyph glyph-name="uni0328" unicode="&#x328;" 
d="M-59 0c-56 -31 -85 -60 -85 -97c0 -29 19 -51 62 -51c21 0 34 3 49 10h3v-24c-12 -6 -29 -11 -54 -11c-62 0 -91 32 -91 75s43 78 86 98h30z" />
    <glyph glyph-name="uni0335" unicode="&#x335;" 
d="M-30 384v-28h-408v28h408z" />
    <glyph glyph-name="uni0336" unicode="&#x336;" 
d="M-30 374v-28h-500v28h500z" />
    <glyph glyph-name="uni0337" unicode="&#x337;" 
d="M-546 12l479 509l21 -21l-480 -509z" />
    <glyph glyph-name="uni0338" unicode="&#x338;" 
d="M-546 12l479 509l21 -21l-480 -509z" />
    <glyph glyph-name="acute" unicode="&#xb4;" horiz-adv-x="469" 
d="M279 721h41l-81 -124h-29z" />
    <glyph glyph-name="breve" unicode="&#x2d8;" horiz-adv-x="488" 
d="M252 618c-69 0 -112 51 -116 107h28c7 -39 35 -81 88 -81c54 0 82 42 89 81h28c-4 -56 -47 -107 -117 -107z" />
    <glyph glyph-name="caron" unicode="&#x2c7;" horiz-adv-x="461" 
d="M249 621h-37l-87 104h40l66 -81h1l66 81h39z" />
    <glyph glyph-name="cedilla" unicode="&#xb8;" horiz-adv-x="494" 
d="M280 -3l-58 -50v-2c60 13 96 -15 96 -57c0 -46 -41 -69 -95 -69c-35 0 -68 10 -94 26l10 17c24 -13 52 -20 80 -20c41 0 69 14 69 44c0 27 -19 39 -54 39c-19 0 -35 -5 -47 -11l-12 15l73 68h32z" />
    <glyph glyph-name="circumflex" unicode="&#x2c6;" horiz-adv-x="461" 
d="M249 726l88 -104h-39l-66 81h-1l-66 -81h-40l87 104h37z" />
    <glyph glyph-name="dieresis" unicode="&#xa8;" horiz-adv-x="506" 
d="M143 672c0 17 11 32 32 32s33 -15 33 -32s-12 -32 -33 -32s-32 15 -32 32zM298 672c0 17 11 32 32 32s33 -15 33 -32s-12 -32 -33 -32s-32 15 -32 32z" />
    <glyph glyph-name="dotaccent" unicode="&#x2d9;" horiz-adv-x="508" 
d="M221 672c0 17 11 32 32 32s33 -15 33 -32s-12 -32 -33 -32s-32 15 -32 32z" />
    <glyph glyph-name="grave" unicode="`" horiz-adv-x="466" 
d="M188 721l69 -124h-29l-81 124h41z" />
    <glyph glyph-name="hungarumlaut" unicode="&#x2dd;" horiz-adv-x="501" 
d="M214 721h41l-81 -124h-29zM341 721h41l-81 -124h-29z" />
    <glyph glyph-name="macron" unicode="&#xaf;" horiz-adv-x="478" 
d="M125 679h228v-26h-228v26z" />
    <glyph glyph-name="ogonek" unicode="&#x2db;" horiz-adv-x="494" 
d="M251 0c-56 -31 -85 -60 -85 -97c0 -29 19 -51 62 -51c21 0 34 3 49 10h3v-24c-12 -6 -29 -11 -54 -11c-62 0 -91 32 -91 75s43 78 86 98h30z" />
    <glyph glyph-name="ring" unicode="&#x2da;" horiz-adv-x="497" 
d="M247 580c-45 0 -80 32 -80 80c0 47 35 82 80 82c46 0 82 -35 82 -82c0 -48 -36 -80 -82 -80zM247 604c36 0 56 23 56 56s-20 57 -56 57s-55 -24 -55 -57s19 -56 55 -56z" />
    <glyph glyph-name="tilde" unicode="&#x2dc;" horiz-adv-x="492" 
d="M181 706c55 0 90 -53 129 -53c22 0 34 17 37 53h30c-3 -53 -28 -79 -67 -79c-53 0 -90 53 -129 53c-21 0 -34 -17 -37 -53h-30c3 52 28 79 67 79z" />
    <glyph glyph-name="logo" horiz-adv-x="898" 
d="M753 359c50 0 115 -35 115 -129c0 -69 -51 -122 -114 -122c-31 0 -59 10 -83 29c19 -23 29 -52 29 -83c0 -63 -43 -114 -127 -114c-79 0 -124 65 -124 115c0 -50 -45 -115 -124 -115c-84 0 -127 51 -127 114c0 31 10 60 29 83c-24 -19 -52 -29 -83 -29
c-63 0 -114 53 -114 122c0 94 65 129 115 129c-50 0 -115 35 -115 129c0 69 51 122 114 122c31 0 59 -10 83 -29c-19 23 -29 52 -29 83c0 63 43 114 127 114c79 0 124 -65 124 -115c0 50 45 115 124 115c84 0 127 -51 127 -114c0 -31 -10 -60 -29 -83c24 19 52 29 83 29
c63 0 114 -53 114 -122c0 -94 -65 -129 -115 -129zM60 488c0 -76 53 -114 141 -114h163c52 0 70 18 70 70v173c0 88 -48 131 -109 131c-56 0 -97 -28 -97 -91c0 -47 47 -101 72 -124c4 1 8 2 12 2c23 0 41 -18 41 -39c0 -23 -18 -41 -41 -41c-21 0 -39 17 -39 41
c0 4 1 8 2 12c-23 25 -77 72 -124 72c-63 0 -91 -51 -91 -92zM464 617v-173c0 -52 18 -70 70 -70h163c88 0 141 38 141 114c0 41 -28 92 -91 92c-47 0 -101 -47 -124 -72c1 -4 2 -8 2 -12c0 -24 -18 -41 -39 -41c-23 0 -41 18 -41 41c0 21 18 39 41 39c4 0 8 -1 12 -2
c25 23 72 77 72 124c0 63 -41 91 -97 91c-61 0 -109 -43 -109 -131zM434 101v173c0 52 -18 70 -70 70h-163c-88 0 -141 -38 -141 -114c0 -41 28 -92 91 -92c47 0 101 47 124 72c-1 4 -2 8 -2 12c0 24 18 41 39 41c23 0 41 -18 41 -41c0 -21 -18 -39 -41 -39c-4 0 -8 1 -12 2
c-25 -23 -72 -77 -72 -124c0 -63 41 -91 97 -91c61 0 109 43 109 131zM747 138c63 0 91 51 91 92c0 76 -53 114 -141 114h-163c-52 0 -70 -18 -70 -70v-173c0 -88 48 -131 109 -131c56 0 97 28 97 91c0 47 -47 101 -72 124c-4 -1 -8 -2 -12 -2c-23 0 -41 18 -41 39
c0 23 18 41 41 41c21 0 39 -17 39 -41c0 -4 -1 -8 -2 -12c23 -25 77 -72 124 -72z" />
    <glyph glyph-name="logo_petal" horiz-adv-x="474" 
d="M330 563c63 0 114 -53 114 -122c0 -94 -65 -129 -115 -129h-304v304c0 50 45 115 124 115c84 0 127 -51 127 -114c0 -31 -10 -60 -29 -83c24 19 52 29 83 29zM273 327c88 0 141 38 141 114c0 41 -28 92 -91 92c-47 0 -101 -47 -124 -72c1 -4 2 -8 2 -12
c0 -24 -18 -41 -39 -41c-23 0 -41 18 -41 41c0 21 18 39 41 39c4 0 8 -1 12 -2c25 23 72 77 72 124c0 63 -41 91 -97 91c-61 0 -109 -43 -109 -131v-173c0 -52 18 -70 70 -70h163z" />
    </font>
</defs>
</svg>
